<svg width="73" height="70" viewBox="0 0 83 80" fill="none" xmlns="http://www.w3.org/2000/svg">
<circle cx="42.5" cy="40.5" r="31.5" fill="url(#paint0_linear_1339_32716)"/>
<circle cx="79.5" cy="12.5" r="3.5" fill="url(#paint1_linear_1339_32716)"/>
<circle cx="8.5" cy="4.5" r="4.5" fill="url(#paint2_linear_1339_32716)"/>
<circle cx="4" cy="59" r="2" fill="url(#paint3_linear_1339_32716)"/>
<circle cx="73" cy="71" r="1" fill="url(#paint4_linear_1339_32716)"/>
<path fill-rule="evenodd" clip-rule="evenodd" d="M50.409 40.0011C50.409 40.8824 51.1327 41.5994 52.0221 41.5994C52.4706 41.5994 52.8346 41.9601 52.8346 42.4045V45.3038C52.8346 47.7556 50.8218 49.75 48.3475 49.75H35.6562C33.1819 49.75 31.168 47.7556 31.168 45.3038V42.4045C31.168 41.9601 31.532 41.5994 31.9805 41.5994C32.871 41.5994 33.5946 40.8824 33.5946 40.0011C33.5946 39.1423 32.9002 38.4961 31.9805 38.4961C31.7649 38.4961 31.5591 38.4113 31.4063 38.26C31.2536 38.1086 31.168 37.9036 31.168 37.691L31.1701 34.6972C31.1701 32.2455 33.183 30.25 35.6573 30.25H48.3453C50.8196 30.25 52.8336 32.2455 52.8336 34.6972L52.8346 37.5977C52.8346 37.8102 52.7491 38.0163 52.5974 38.1666C52.4446 38.3179 52.2388 38.4027 52.0221 38.4027C51.1327 38.4027 50.409 39.1198 50.409 40.0011ZM44.4421 40.7018L45.7194 39.4695C45.9415 39.2569 46.0184 38.9435 45.922 38.6536C45.8266 38.3638 45.5775 38.1577 45.2763 38.1159L43.5116 37.8604L42.7218 36.276C42.5864 36.0033 42.3112 35.8337 42.0046 35.8327H42.0025C41.697 35.8327 41.4218 36.0023 41.2842 36.2749L40.4945 37.8604L38.733 38.1148C38.4286 38.1577 38.1794 38.3638 38.083 38.6536C37.9876 38.9435 38.0646 39.2569 38.2856 39.4695L39.5628 40.7018L39.2616 42.4439C39.2096 42.7445 39.3321 43.0429 39.5812 43.2222C39.7221 43.322 39.8856 43.3735 40.0514 43.3735C40.1781 43.3735 40.306 43.3424 40.423 43.2812L42.0025 42.459L43.5787 43.2791C43.8517 43.424 44.1756 43.4014 44.4237 43.2211C44.674 43.0429 44.7964 42.7445 44.7444 42.4439L44.4421 40.7018Z" fill="white"/>
<circle cx="47" cy="2" r="1" fill="url(#paint5_linear_1339_32716)"/>
<circle cx="27.5" cy="78.5" r="1.5" fill="url(#paint6_linear_1339_32716)"/>
<circle cx="54.5" cy="76.5" r="0.5" fill="url(#paint7_linear_1339_32716)"/>
<circle cx="76" cy="49" r="1" fill="url(#paint8_linear_1339_32716)"/>
<circle cx="0.5" cy="33.5" r="0.5" fill="url(#paint9_linear_1339_32716)"/>
<defs>
<linearGradient id="paint0_linear_1339_32716" x1="74" y1="72" x2="-0.964344" y2="50.2648" gradientUnits="userSpaceOnUse">
<stop stop-color="#101010"/>
<stop offset="1" stop-color="#313130"/>
</linearGradient>
<linearGradient id="paint1_linear_1339_32716" x1="83" y1="16" x2="74.6706" y2="13.585" gradientUnits="userSpaceOnUse">
<stop stop-color="#101010"/>
<stop offset="1" stop-color="#313130"/>
</linearGradient>
<linearGradient id="paint2_linear_1339_32716" x1="13" y1="9" x2="2.29081" y2="5.89497" gradientUnits="userSpaceOnUse">
<stop stop-color="#101010"/>
<stop offset="1" stop-color="#313130"/>
</linearGradient>
<linearGradient id="paint3_linear_1339_32716" x1="6" y1="61" x2="1.24036" y2="59.62" gradientUnits="userSpaceOnUse">
<stop stop-color="#101010"/>
<stop offset="1" stop-color="#313130"/>
</linearGradient>
<linearGradient id="paint4_linear_1339_32716" x1="74" y1="72" x2="71.6202" y2="71.31" gradientUnits="userSpaceOnUse">
<stop stop-color="#101010"/>
<stop offset="1" stop-color="#313130"/>
</linearGradient>
<linearGradient id="paint5_linear_1339_32716" x1="48" y1="3" x2="45.6202" y2="2.30999" gradientUnits="userSpaceOnUse">
<stop stop-color="#101010"/>
<stop offset="1" stop-color="#313130"/>
</linearGradient>
<linearGradient id="paint6_linear_1339_32716" x1="29" y1="80" x2="25.4303" y2="78.965" gradientUnits="userSpaceOnUse">
<stop stop-color="#101010"/>
<stop offset="1" stop-color="#313130"/>
</linearGradient>
<linearGradient id="paint7_linear_1339_32716" x1="55" y1="77" x2="53.8101" y2="76.655" gradientUnits="userSpaceOnUse">
<stop stop-color="#101010"/>
<stop offset="1" stop-color="#313130"/>
</linearGradient>
<linearGradient id="paint8_linear_1339_32716" x1="77" y1="50" x2="74.6202" y2="49.31" gradientUnits="userSpaceOnUse">
<stop stop-color="#101010"/>
<stop offset="1" stop-color="#313130"/>
</linearGradient>
<linearGradient id="paint9_linear_1339_32716" x1="1" y1="34" x2="-0.18991" y2="33.655" gradientUnits="userSpaceOnUse">
<stop stop-color="#101010"/>
<stop offset="1" stop-color="#313130"/>
</linearGradient>
</defs>
</svg>