<svg width="73" height="70" viewBox="0 0 83 80" fill="none" xmlns="http://www.w3.org/2000/svg">
<circle cx="42.5" cy="40.5" r="31.5" fill="white"/>
<circle cx="79.5" cy="12.5" r="3.5" fill="white"/>
<circle cx="8.5" cy="4.5" r="4.5" fill="white"/>
<circle cx="4" cy="59" r="2" fill="white"/>
<circle cx="73" cy="71" r="1" fill="white"/>
<path fill-rule="evenodd" clip-rule="evenodd" d="M50.4071 40.0011C50.4071 40.8824 51.1308 41.5994 52.0202 41.5994C52.4687 41.5994 52.8327 41.9601 52.8327 42.4045V45.3038C52.8327 47.7556 50.8198 49.75 48.3455 49.75H35.6543C33.1799 49.75 31.166 47.7556 31.166 45.3038V42.4045C31.166 41.9601 31.53 41.5994 31.9785 41.5994C32.869 41.5994 33.5927 40.8824 33.5927 40.0011C33.5927 39.1423 32.8983 38.4961 31.9785 38.4961C31.7629 38.4961 31.5571 38.4113 31.4043 38.26C31.2516 38.1086 31.166 37.9036 31.166 37.691L31.1682 34.6972C31.1682 32.2455 33.181 30.25 35.6553 30.25H48.3433C50.8177 30.25 52.8316 32.2455 52.8316 34.6972L52.8327 37.5977C52.8327 37.8102 52.7471 38.0163 52.5954 38.1666C52.4427 38.3179 52.2368 38.4027 52.0202 38.4027C51.1308 38.4027 50.4071 39.1198 50.4071 40.0011ZM44.4404 40.7017L45.7177 39.4694C45.9398 39.2568 46.0167 38.9434 45.9203 38.6536C45.8249 38.3637 45.5758 38.1576 45.2746 38.1158L43.5098 37.8603L42.7201 36.2759C42.5847 36.0033 42.3095 35.8337 42.0029 35.8326H42.0008C41.6953 35.8326 41.4201 36.0022 41.2825 36.2748L40.4928 37.8603L38.7313 38.1147C38.4268 38.1576 38.1777 38.3637 38.0813 38.6536C37.9859 38.9434 38.0628 39.2568 38.2838 39.4694L39.5611 40.7017L39.2599 42.4439C39.2079 42.7444 39.3303 43.0428 39.5795 43.2221C39.7203 43.3219 39.8839 43.3735 40.0497 43.3735C40.1764 43.3735 40.3043 43.3423 40.4213 43.2811L42.0008 42.4589L43.577 43.279C43.85 43.4239 44.1739 43.4014 44.422 43.221C44.6723 43.0428 44.7947 42.7444 44.7427 42.4439L44.4404 40.7017Z" fill="#35383F"/>
<circle cx="47" cy="2" r="1" fill="white"/>
<circle cx="27.5" cy="78.5" r="1.5" fill="white"/>
<circle cx="54.5" cy="76.5" r="0.5" fill="white"/>
<circle cx="76" cy="49" r="1" fill="white"/>
<circle cx="0.5" cy="33.5" r="0.5" fill="white"/>
</svg>