<svg width="16" height="14" viewBox="0 0 16 14" fill="none" xmlns="http://www.w3.org/2000/svg">
<path d="M4.46712 11.8666L2.63379 11.4666C2.46712 11.4333 2.33379 11.3471 2.23379 11.208C2.13379 11.0693 2.0949 10.9166 2.11712 10.75L2.30046 8.86664L1.05046 7.43331C0.939345 7.31109 0.883789 7.16664 0.883789 6.99997C0.883789 6.83331 0.939345 6.68886 1.05046 6.56664L2.30046 5.13331L2.11712 3.24997C2.0949 3.08331 2.13379 2.93064 2.23379 2.79197C2.33379 2.65286 2.46712 2.56664 2.63379 2.53331L4.46712 2.13331L5.43379 0.499975C5.52268 0.35553 5.6449 0.261086 5.80046 0.216641C5.95601 0.172197 6.11157 0.177752 6.26712 0.233308L8.00046 0.966641L9.73379 0.233308C9.88935 0.177752 10.0449 0.172197 10.2005 0.216641C10.356 0.261086 10.4782 0.35553 10.5671 0.499975L11.5338 2.13331L13.3671 2.53331C13.5338 2.56664 13.6671 2.65286 13.7671 2.79197C13.8671 2.93064 13.906 3.08331 13.8838 3.24997L13.7005 5.13331L14.9505 6.56664C15.0616 6.68886 15.1171 6.83331 15.1171 6.99997C15.1171 7.16664 15.0616 7.31109 14.9505 7.43331L13.7005 8.86664L13.8838 10.75C13.906 10.9166 13.8671 11.0693 13.7671 11.208C13.6671 11.3471 13.5338 11.4333 13.3671 11.4666L11.5338 11.8666L10.5671 13.5C10.4782 13.6444 10.356 13.7389 10.2005 13.7833C10.0449 13.8278 9.88935 13.8222 9.73379 13.7666L8.00046 13.0333L6.26712 13.7666C6.11157 13.8222 5.95601 13.8278 5.80046 13.7833C5.6449 13.7389 5.52268 13.6444 5.43379 13.5L4.46712 11.8666ZM6.83379 8.89998C6.95601 9.0222 7.11157 9.08331 7.30046 9.08331C7.48934 9.08331 7.6449 9.0222 7.76712 8.89998L10.6005 6.06664C10.7338 5.93331 10.8005 5.77486 10.8005 5.59131C10.8005 5.4082 10.7338 5.24997 10.6005 5.11664C10.4671 4.98331 10.3089 4.91664 10.1258 4.91664C9.94223 4.91664 9.78379 4.98331 9.65046 5.11664L7.30046 7.46664L6.33379 6.51664C6.20046 6.39442 6.04223 6.33597 5.85912 6.34131C5.67557 6.34709 5.52268 6.41109 5.40046 6.53331C5.27823 6.65553 5.21712 6.81109 5.21712 6.99997C5.21712 7.18886 5.27823 7.34442 5.40046 7.46664L6.83379 8.89998Z" fill="url(#paint0_linear_1739_21687)"/>
<defs>
<linearGradient id="paint0_linear_1739_21687" x1="15.1171" y1="13.8129" x2="-1.7004" y2="8.71949" gradientUnits="userSpaceOnUse">
<stop stop-color="#335EF7"/>
<stop offset="1" stop-color="#5F82FF"/>
</linearGradient>
</defs>
</svg>
