<svg width="19" height="20" viewBox="0 0 19 20" fill="none" xmlns="http://www.w3.org/2000/svg">
<path fill-rule="evenodd" clip-rule="evenodd" d="M14.3307 5C14.3625 4.92913 14.3774 4.85189 14.3743 4.77432H14.4004C14.2886 2.10591 12.0853 0 9.40533 0C6.72539 0 4.52211 2.10591 4.41028 4.77432C4.39709 4.84898 4.39709 4.92535 4.41028 5H4.3321C3.05061 5 1.68074 5.84597 1.28303 8.12007L0.505295 14.3147C-0.131033 18.8629 2.21101 20 5.26892 20H13.5589C16.6079 20 18.8793 18.3535 18.3137 14.3147L17.5448 8.12007C17.0763 5.90964 15.7507 5 14.4868 5H14.3307ZM12.8936 5C12.8658 4.92794 12.851 4.85153 12.8501 4.77432C12.8501 2.85682 11.2903 1.30238 9.36614 1.30238C7.44203 1.30238 5.88223 2.85682 5.88223 4.77432C5.89541 4.84898 5.89541 4.92535 5.88223 5H12.8936ZM6.49739 10.1486C6.00928 10.1486 5.6136 9.74131 5.6136 9.23893C5.6136 8.73655 6.00928 8.32929 6.49739 8.32929C6.98549 8.32929 7.38118 8.73655 7.38118 9.23893C7.38118 9.74131 6.98549 10.1486 6.49739 10.1486ZM11.4024 9.23893C11.4024 9.74131 11.7981 10.1486 12.2862 10.1486C12.7743 10.1486 13.17 9.74131 13.17 9.23893C13.17 8.73655 12.7743 8.32929 12.2862 8.32929C11.7981 8.32929 11.4024 8.73655 11.4024 9.23893Z" fill="white"/>
</svg>