<svg width="19" height="20" viewBox="0 0 19 20" fill="none" xmlns="http://www.w3.org/2000/svg">
<path fill-rule="evenodd" clip-rule="evenodd" d="M14.3297 5C14.3615 4.92913 14.3764 4.85189 14.3733 4.77432H14.3994C14.2876 2.10591 12.0843 0 9.40436 0C6.72441 0 4.52114 2.10591 4.4093 4.77432C4.39612 4.84898 4.39612 4.92535 4.4093 5H4.33113C3.04963 5 1.67976 5.84597 1.28205 8.12007L0.504319 14.3147C-0.13201 18.8629 2.21003 20 5.26794 20H13.5579C16.607 20 18.8783 18.3535 18.3127 14.3147L17.5438 8.12007C17.0754 5.90964 15.7497 5 14.4859 5H14.3297ZM12.8926 5C12.8648 4.92794 12.85 4.85153 12.8491 4.77432C12.8491 2.85682 11.2893 1.30238 9.36516 1.30238C7.44105 1.30238 5.88125 2.85682 5.88125 4.77432C5.89444 4.84898 5.89444 4.92535 5.88125 5H12.8926ZM6.49641 10.1486C6.00831 10.1486 5.61262 9.74131 5.61262 9.23893C5.61262 8.73655 6.00831 8.32929 6.49641 8.32929C6.98451 8.32929 7.3802 8.73655 7.3802 9.23893C7.3802 9.74131 6.98451 10.1486 6.49641 10.1486ZM11.4014 9.23893C11.4014 9.74131 11.7971 10.1486 12.2852 10.1486C12.7733 10.1486 13.169 9.74131 13.169 9.23893C13.169 8.73655 12.7733 8.32929 12.2852 8.32929C11.7971 8.32929 11.4014 8.73655 11.4014 9.23893Z" fill="#212121"/>
</svg>
