<svg width="21" height="22" viewBox="0 0 21 22" fill="none" xmlns="http://www.w3.org/2000/svg">
<path fill-rule="evenodd" clip-rule="evenodd" d="M14.9128 20.5H6.56496C3.4986 20.5 1.1462 19.3925 1.81439 14.9348L2.59242 8.89363C3.00432 6.66937 4.42309 5.81812 5.66794 5.81812H15.8464C17.1096 5.81812 18.446 6.73345 18.9219 8.89363L19.7 14.9348C20.2675 18.8891 17.9792 20.5 14.9128 20.5Z" stroke="#9E9E9E" stroke-width="1.5" stroke-linecap="round" stroke-linejoin="round"/>
<path d="M15.0497 5.59848C15.0497 3.21241 13.1154 1.27812 10.7293 1.27812V1.27812C9.5803 1.27325 8.47669 1.72628 7.6625 2.53703C6.84831 3.34778 6.39061 4.44947 6.39063 5.59848H6.39062" stroke="#9E9E9E" stroke-width="1.5" stroke-linecap="round" stroke-linejoin="round"/>
<path d="M13.6954 10.102H13.6496" stroke="#9E9E9E" stroke-width="1.5" stroke-linecap="round" stroke-linejoin="round"/>
<path d="M7.86434 10.102H7.81857" stroke="#9E9E9E" stroke-width="1.5" stroke-linecap="round" stroke-linejoin="round"/>
</svg>
