<svg width="40" height="40" viewBox="0 0 40 40" fill="none" xmlns="http://www.w3.org/2000/svg">
<rect width="40" height="40" rx="20" fill="#FF4D67" fill-opacity="0.08"/>
<path d="M18.869 24.6308C18.811 24.5743 18.563 24.3609 18.359 24.1622C17.076 22.9971 14.976 19.9576 14.335 18.3668C14.232 18.1252 14.014 17.5144 14 17.188C14 16.8753 14.072 16.5772 14.218 16.2927C14.422 15.9381 14.743 15.6537 15.122 15.4978C15.385 15.3975 16.172 15.2416 16.186 15.2416C17.047 15.0857 18.446 15 19.992 15C21.465 15 22.807 15.0857 23.681 15.2133C23.695 15.228 24.673 15.3838 25.008 15.5543C25.62 15.867 26 16.4778 26 17.1315V17.188C25.985 17.6137 25.605 18.509 25.591 18.509C24.949 20.0141 22.952 22.9834 21.625 24.1768C21.625 24.1768 21.284 24.5129 21.071 24.659C20.765 24.887 20.386 25 20.007 25C19.584 25 19.19 24.8724 18.869 24.6308Z" fill="#FF4D67"/>
</svg>
