<svg width="186" height="180" viewBox="0 0 186 180" fill="none" xmlns="http://www.w3.org/2000/svg">
<circle cx="95.5" cy="90.5" r="70.5" fill="url(#paint0_linear_1454_14136)"/>
<circle cx="178.467" cy="27.5" r="7.5" fill="#FF94A4"/>
<circle cx="20.0332" cy="10" r="10" fill="#FF94A4"/>
<circle cx="10.0332" cy="133" r="5" fill="#FF94A4"/>
<circle cx="165.533" cy="160.5" r="2.5" fill="#FF94A4"/>
<path fill-rule="evenodd" clip-rule="evenodd" d="M104.964 67.1474C106.515 67.1474 108.064 67.3662 109.536 67.8603C118.61 70.8103 121.88 80.7665 119.149 89.469C117.6 93.9162 115.068 97.9749 111.751 101.291C107.004 105.888 101.795 109.969 96.1877 113.484L95.5731 113.856L94.934 113.46C89.3068 109.969 84.0681 105.888 79.2768 101.267C75.9827 97.9503 73.4481 93.9162 71.8748 89.469C69.0969 80.7665 72.3665 70.8103 81.5385 67.8087C82.2514 67.5628 82.9865 67.3907 83.724 67.2949H84.019C84.7098 67.1941 85.3956 67.1474 86.084 67.1474H86.3544C87.9031 67.1941 89.4027 67.4645 90.8556 67.9586H91.0006C91.099 68.0053 91.1727 68.0569 91.2219 68.1037C91.7652 68.2782 92.279 68.4749 92.7706 68.7453L93.7048 69.1632C93.9305 69.2836 94.1839 69.4675 94.4029 69.6265C94.5416 69.7272 94.6665 69.818 94.7619 69.8761C94.802 69.8998 94.8428 69.9236 94.8839 69.9476C95.0947 70.0706 95.3142 70.1988 95.4994 70.3407C98.2306 68.2536 101.547 67.1228 104.964 67.1474ZM111.503 84.8474C112.511 84.8203 113.371 84.0115 113.445 82.9766V82.684C113.519 79.2399 111.432 76.1203 108.258 74.9157C107.25 74.5691 106.144 75.1124 105.775 76.1449C105.431 77.1774 105.972 78.3082 107.004 78.6745C108.58 79.2645 109.635 80.8157 109.635 82.5341V82.6103C109.588 83.1732 109.758 83.7165 110.102 84.1344C110.446 84.5524 110.962 84.7957 111.503 84.8474Z" fill="white"/>
<circle cx="106.533" cy="4.5" r="2.5" fill="#FF94A4"/>
<circle cx="62.5332" cy="176.5" r="3.5" fill="#FF94A4"/>
<circle cx="122.033" cy="171" r="1" fill="#FF94A4"/>
<circle cx="170.533" cy="110.5" r="2.5" fill="#FF94A4"/>
<circle cx="1.0332" cy="75" r="1" fill="#FF94A4"/>
<defs>
<linearGradient id="paint0_linear_1454_14136" x1="166" y1="161" x2="-1.77734" y2="112.355" gradientUnits="userSpaceOnUse">
<stop stop-color="#FF4D67"/>
<stop offset="1" stop-color="#FF8395"/>
</linearGradient>
</defs>
</svg>
