<svg width="52" height="52" viewBox="0 0 52 52" fill="none" xmlns="http://www.w3.org/2000/svg">
<rect width="52" height="52" rx="26" fill="#101010" fill-opacity="0.12"/>
<rect x="8" y="8" width="36" height="36" rx="18" fill="url(#paint0_linear_1463_24716)"/>
<path fill-rule="evenodd" clip-rule="evenodd" d="M18.917 24.5985C18.917 20.7652 22.1202 17.667 25.9949 17.667C29.8804 17.667 33.0837 20.7652 33.0837 24.5985C33.0837 26.5301 32.3812 28.3233 31.2249 29.8433C29.9493 31.5199 28.3771 32.9807 26.6074 34.1273C26.2024 34.3923 25.8369 34.4123 25.3924 34.1273C23.6126 32.9807 22.0404 31.5199 20.7757 29.8433C19.6186 28.3233 18.917 26.5301 18.917 24.5985ZM23.6622 24.8143C23.6622 26.0984 24.71 27.1084 25.9949 27.1084C27.2805 27.1084 28.3385 26.0984 28.3385 24.8143C28.3385 23.5402 27.2805 22.481 25.9949 22.481C24.71 22.481 23.6622 23.5402 23.6622 24.8143Z" fill="white"/>
<defs>
<linearGradient id="paint0_linear_1463_24716" x1="44" y1="44" x2="1.16323" y2="31.5799" gradientUnits="userSpaceOnUse">
<stop stop-color="#101010"/>
<stop offset="1" stop-color="#313130"/>
</linearGradient>
</defs>
</svg>
