<svg width="260" height="159" viewBox="0 0 260 159" fill="none" xmlns="http://www.w3.org/2000/svg">
<g clip-path="url(#clip0_1434_31223)">
<path d="M21.5248 34.9134C28.9248 34.9134 34.9237 28.9146 34.9237 21.5146C34.9237 14.1146 28.9248 8.11572 21.5248 8.11572C14.1248 8.11572 8.12598 14.1146 8.12598 21.5146C8.12598 28.9146 14.1248 34.9134 21.5248 34.9134Z" fill="#FF6584"/>
<path d="M129.329 158.262C200.755 158.262 258.658 155.915 258.658 153.019C258.658 150.124 200.755 147.776 129.329 147.776C57.9025 147.776 0 150.124 0 153.019C0 155.915 57.9025 158.262 129.329 158.262Z" fill="#E6E6E6"/>
<path d="M32.9146 87.3116C51.0928 87.3116 65.8291 72.5752 65.8291 54.397C65.8291 36.2188 51.0928 21.4824 32.9146 21.4824C14.7364 21.4824 0 36.2188 0 54.397C0 72.5752 14.7364 87.3116 32.9146 87.3116Z" fill="#101010"/>
<path d="M36.0874 153.537H29.3457L32.419 49.4399L36.0874 153.537Z" fill="#3F3D56"/>
<path d="M33.0133 69.1688L40.2507 59.1558L32.9142 71.6473L32.1211 70.2593L33.0133 69.1688Z" fill="#3F3D56"/>
<path d="M32.2205 79.2811L24.9834 69.2681L32.3199 81.7596L33.113 80.3716L32.2205 79.2811Z" fill="#3F3D56"/>
<path d="M241.035 153.647H234.294L237.367 49.5493L241.035 153.647Z" fill="#3F3D56"/>
<path d="M237.962 69.2786L245.199 59.2656L237.862 71.7571L237.069 70.3692L237.962 69.2786Z" fill="#3F3D56"/>
<path d="M237.169 79.391L229.932 69.3779L237.268 81.8694L238.061 80.4815L237.169 79.391Z" fill="#3F3D56"/>
<path d="M133.714 153.629C167.577 153.629 195.029 126.177 195.029 92.3139C195.029 58.4504 167.577 30.9985 133.714 30.9985C99.8502 30.9985 72.3984 58.4504 72.3984 92.3139C72.3984 126.177 99.8502 153.629 133.714 153.629Z" fill="#3F3D56"/>
<path d="M133.713 148.554C164.773 148.554 189.953 123.375 189.953 92.3143C189.953 61.254 164.773 36.0747 133.713 36.0747C102.653 36.0747 77.4736 61.254 77.4736 92.3143C77.4736 123.375 102.653 148.554 133.713 148.554Z" fill="white"/>
<path d="M133.51 100.029C137.659 100.029 141.022 96.6659 141.022 92.517C141.022 88.3682 137.659 85.0049 133.51 85.0049C129.361 85.0049 125.998 88.3682 125.998 92.517C125.998 96.6659 129.361 100.029 133.51 100.029Z" fill="#3F3D56"/>
<path d="M135.134 38.917H131.886V45.0079H135.134V38.917Z" fill="#3F3D56"/>
<path d="M135.134 140.026H131.886V146.117H135.134V140.026Z" fill="#3F3D56"/>
<path d="M86.001 94.1416V90.8931H79.91V94.1416H86.001Z" fill="#3F3D56"/>
<path d="M187.11 94.1416V90.8931H181.019V94.1416H187.11Z" fill="#3F3D56"/>
<path d="M131.345 95.778L134.121 89.4302L168.907 108.696L131.345 95.778Z" fill="#3F3D56"/>
<path d="M141.631 16.1772H125.795V34.45H141.631V16.1772Z" fill="#3F3D56"/>
<path d="M133.713 21.2531C143.805 21.2531 151.986 18.9806 151.986 16.1773C151.986 13.3741 143.805 11.1016 133.713 11.1016C123.621 11.1016 115.44 13.3741 115.44 16.1773C115.44 18.9806 123.621 21.2531 133.713 21.2531Z" fill="#3F3D56"/>
<path d="M167.924 103.176L166.909 104.597C166.909 104.597 162.24 110.079 162.036 107.44C161.833 104.8 165.488 102.973 165.488 102.973L167.518 101.755L167.924 103.176Z" fill="#FFB8B8"/>
<path d="M196.824 107.971L197.675 109.497C197.675 109.497 200.631 116.063 198.158 115.117C195.686 114.171 195.598 110.086 195.598 110.086L195.366 107.73L196.824 107.971Z" fill="#FFB8B8"/>
<path d="M192.254 80.9171C195.669 80.9171 198.437 78.1492 198.437 74.7349C198.437 71.3206 195.669 68.5527 192.254 68.5527C188.84 68.5527 186.072 71.3206 186.072 74.7349C186.072 78.1492 188.84 80.9171 192.254 80.9171Z" fill="#2F2E41"/>
<path d="M191.679 125.51L192.491 130.788V132.413H197.161V130.382C197.161 130.382 197.364 126.728 196.551 125.713C195.739 124.698 191.679 125.51 191.679 125.51Z" fill="#FFB8B8"/>
<path d="M183.354 125.51L184.167 130.788V132.413H188.836V130.382C188.836 130.382 189.039 126.728 188.227 125.713C187.415 124.698 183.354 125.51 183.354 125.51Z" fill="#FFB8B8"/>
<path d="M186.497 83.1069C186.497 83.1069 184.701 84.0536 185.928 86.207C187.154 88.3604 194.352 110.638 194.352 110.638L198.505 109.46L194.843 95.3704L192.746 86.515L186.497 83.1069Z" fill="#101010"/>
<path d="M191.577 81.1475C194.156 81.1475 196.247 79.0568 196.247 76.4778C196.247 73.8988 194.156 71.8081 191.577 71.8081C188.998 71.8081 186.907 73.8988 186.907 76.4778C186.907 79.0568 188.998 81.1475 191.577 81.1475Z" fill="#FFB8B8"/>
<path d="M193.709 77.1885L193.1 86.7309L188.836 83.6855C188.836 83.6855 190.257 78.0006 189.851 77.5945L193.709 77.1885Z" fill="#FFB8B8"/>
<path d="M193.709 85.9188L189.116 82.5175C189.116 82.5175 187.009 81.6551 186.4 82.6703C185.791 83.6854 182.746 98.7097 184.37 101.552C184.37 101.552 193.1 103.379 194.927 102.364L195.74 97.0855C195.74 97.0855 196.755 93.837 195.13 91.8067L193.709 85.9188Z" fill="#101010"/>
<path d="M187.618 82.8732C187.618 82.8732 185.994 81.655 184.572 83.6853C183.151 85.7156 166.097 101.755 166.097 101.755L168.939 105.004L180.106 95.6641L187.212 89.9793L187.618 82.8732Z" fill="#101010"/>
<path d="M195.029 102.262C195.029 102.262 184.979 100.334 183.964 101.755L183.761 103.988C183.761 103.988 181.527 108.252 182.745 115.155C183.964 122.058 183.151 126.322 183.151 126.322C183.151 126.322 188.633 125.713 192.694 126.322C196.755 126.931 197.364 126.322 197.364 126.322L195.029 102.262Z" fill="#2F2E41"/>
<path d="M197.567 131.601L191.679 131.804L193.709 147.031C193.709 147.031 192.085 153.528 193.912 153.934C195.182 154.19 196.474 154.326 197.77 154.34C197.77 154.34 199.597 156.167 201.627 155.964C202.976 155.792 204.282 155.379 205.485 154.746C205.485 154.746 205.891 153.528 204.47 153.122C203.048 152.716 199.191 151.498 198.379 147.234L197.567 131.601Z" fill="#2F2E41"/>
<path d="M189.242 131.601L183.354 131.804L185.385 147.031C185.385 147.031 183.761 153.528 185.588 153.934C186.858 154.19 188.15 154.326 189.445 154.34C189.445 154.34 191.273 156.167 193.303 155.964C194.651 155.792 195.958 155.379 197.161 154.746C197.161 154.746 197.567 153.528 196.145 153.122C194.724 152.716 190.867 151.498 190.055 147.234L189.242 131.601Z" fill="#2F2E41"/>
<path d="M194.417 70.7867C195.829 70.7867 196.975 69.6414 196.975 68.2286C196.975 66.8157 195.829 65.6704 194.417 65.6704C193.004 65.6704 191.858 66.8157 191.858 68.2286C191.858 69.6414 193.004 70.7867 194.417 70.7867Z" fill="#2F2E41"/>
<path d="M197.828 66.8428C197.828 66.2105 197.594 65.6006 197.17 65.1307C196.747 64.6609 196.165 64.3644 195.536 64.2985C195.625 64.2893 195.714 64.2847 195.803 64.2847C196.481 64.2847 197.132 64.5542 197.611 65.0339C198.091 65.5137 198.361 66.1643 198.361 66.8428C198.361 67.5213 198.091 68.1719 197.611 68.6517C197.132 69.1314 196.481 69.401 195.803 69.401C195.714 69.4009 195.625 69.3963 195.536 69.3871C196.165 69.3212 196.747 69.0247 197.17 68.5549C197.594 68.0851 197.828 67.4751 197.828 66.8428Z" fill="#2F2E41"/>
<path d="M191.535 75.9825C193.89 75.9825 195.799 74.8372 195.799 73.4244C195.799 72.0115 193.89 70.8662 191.535 70.8662C189.18 70.8662 187.271 72.0115 187.271 73.4244C187.271 74.8372 189.18 75.9825 191.535 75.9825Z" fill="#2F2E41"/>
<path d="M258.691 13.0154C258.517 9.93629 257.255 7.01906 255.13 4.78388C253.005 2.5487 250.155 1.14084 247.089 0.811331C244.022 0.48182 240.939 1.25207 238.387 2.98475C235.836 4.71743 233.983 7.29991 233.158 10.2718C233.001 10.2661 232.843 10.2598 232.684 10.2598C229.873 10.2603 227.137 11.1711 224.886 12.856C222.635 14.5408 220.991 16.9091 220.198 19.6066C218.335 18.788 216.253 18.6104 214.278 19.1016C212.304 19.5928 210.548 20.7251 209.285 22.3211H249.879C251.063 22.3245 252.235 22.0888 253.327 21.6283C254.418 21.1677 255.404 20.4918 256.228 19.6408C257.052 18.7899 257.695 17.7816 258.12 16.6761C258.545 15.5707 258.742 14.3909 258.7 13.2074C258.698 13.1435 258.695 13.0795 258.691 13.0154Z" fill="#E6E6E6"/>
<path d="M224.755 40.4038C226.686 40.4038 228.25 38.8389 228.25 36.9084C228.25 34.978 226.686 33.4131 224.755 33.4131C222.825 33.4131 221.26 34.978 221.26 36.9084C221.26 38.8389 222.825 40.4038 224.755 40.4038Z" fill="#E6E6E6"/>
<path d="M235.309 31.5776C236.916 31.5776 238.219 30.2746 238.219 28.6672C238.219 27.0599 236.916 25.7568 235.309 25.7568C233.701 25.7568 232.398 27.0599 232.398 28.6672C232.398 30.2746 233.701 31.5776 235.309 31.5776Z" fill="#E6E6E6"/>
<path d="M249.514 47.977C251.444 47.977 253.009 46.4121 253.009 44.4817C253.009 42.5513 251.444 40.9863 249.514 40.9863C247.583 40.9863 246.019 42.5513 246.019 44.4817C246.019 46.4121 247.583 47.977 249.514 47.977Z" fill="#E6E6E6"/>
<path d="M223.007 63.9971C224.938 63.9971 226.502 62.4321 226.502 60.5017C226.502 58.5713 224.938 57.0063 223.007 57.0063C221.077 57.0063 219.512 58.5713 219.512 60.5017C219.512 62.4321 221.077 63.9971 223.007 63.9971Z" fill="#E6E6E6"/>
<path d="M249.514 84.0957C251.444 84.0957 253.009 82.5308 253.009 80.6003C253.009 78.6699 251.444 77.105 249.514 77.105C247.583 77.105 246.019 78.6699 246.019 80.6003C246.019 82.5308 247.583 84.0957 249.514 84.0957Z" fill="#E6E6E6"/>
<path d="M243.974 147.999C243.975 147.961 243.98 147.924 243.98 147.886C243.98 147.3 243.834 146.724 243.554 146.21C243.273 145.695 242.868 145.26 242.375 144.944C241.882 144.627 241.317 144.44 240.733 144.399C240.149 144.358 239.564 144.465 239.032 144.71C238.532 144.133 237.858 143.737 237.111 143.58C236.365 143.424 235.588 143.517 234.899 143.845C234.21 144.172 233.648 144.717 233.299 145.395C232.949 146.072 232.831 146.846 232.964 147.597C232.946 147.597 232.929 147.595 232.911 147.595C232.355 147.594 231.806 147.726 231.311 147.98C230.816 148.233 230.388 148.602 230.064 149.054C229.74 149.507 229.529 150.03 229.448 150.58C229.366 151.131 229.418 151.693 229.598 152.219C229.777 152.746 230.08 153.222 230.481 153.608C230.882 153.994 231.369 154.279 231.902 154.438C232.435 154.598 232.999 154.628 233.546 154.526C234.093 154.424 234.608 154.193 235.047 153.852C235.325 154.393 235.738 154.852 236.247 155.183C236.756 155.515 237.343 155.709 237.949 155.744C238.556 155.78 239.161 155.657 239.706 155.388C240.25 155.118 240.715 154.711 241.054 154.207C241.47 154.509 241.948 154.716 242.453 154.813C242.958 154.91 243.478 154.893 243.976 154.766C244.475 154.638 244.938 154.402 245.335 154.074C245.731 153.746 246.05 153.335 246.269 152.869C246.488 152.404 246.601 151.896 246.601 151.381C246.601 150.867 246.487 150.359 246.268 149.894C246.049 149.429 245.729 149.017 245.333 148.69C244.936 148.362 244.472 148.126 243.974 147.999Z" fill="#E6E6E6"/>
<path d="M252.718 68.0754C253.522 68.0754 254.175 67.4233 254.175 66.619C254.175 65.8146 253.522 65.1626 252.718 65.1626C251.914 65.1626 251.262 65.8146 251.262 66.619C251.262 67.4233 251.914 68.0754 252.718 68.0754Z" fill="#E6E6E6"/>
<path d="M243.397 33.1218C244.201 33.1218 244.853 32.4697 244.853 31.6654C244.853 30.861 244.201 30.209 243.397 30.209C242.592 30.209 241.94 30.861 241.94 31.6654C241.94 32.4697 242.592 33.1218 243.397 33.1218Z" fill="#E6E6E6"/>
<path d="M238.446 69.2404C239.25 69.2404 239.902 68.5884 239.902 67.784C239.902 66.9797 239.25 66.3276 238.446 66.3276C237.641 66.3276 236.989 66.9797 236.989 67.784C236.989 68.5884 237.641 69.2404 238.446 69.2404Z" fill="#E6E6E6"/>
<path d="M239.611 67.7839C240.415 67.7839 241.067 67.1318 241.067 66.3275C241.067 65.5231 240.415 64.8711 239.611 64.8711C238.806 64.8711 238.154 65.5231 238.154 66.3275C238.154 67.1318 238.806 67.7839 239.611 67.7839Z" fill="#E6E6E6"/>
<path d="M240.485 66.3273C241.289 66.3273 241.941 65.6753 241.941 64.8709C241.941 64.0666 241.289 63.4146 240.485 63.4146C239.68 63.4146 239.028 64.0666 239.028 64.8709C239.028 65.6753 239.68 66.3273 240.485 66.3273Z" fill="#E6E6E6"/>
<path d="M236.989 78.5612C237.793 78.5612 238.445 77.9092 238.445 77.1048C238.445 76.3005 237.793 75.6484 236.989 75.6484C236.184 75.6484 235.532 76.3005 235.532 77.1048C235.532 77.9092 236.184 78.5612 236.989 78.5612Z" fill="#E6E6E6"/>
<path d="M258.543 94.8728C259.348 94.8728 260 94.2207 260 93.4164C260 92.612 259.348 91.96 258.543 91.96C257.739 91.96 257.087 92.612 257.087 93.4164C257.087 94.2207 257.739 94.8728 258.543 94.8728Z" fill="#E6E6E6"/>
<path d="M227.376 95.7468C228.181 95.7468 228.833 95.0947 228.833 94.2904C228.833 93.486 228.181 92.834 227.376 92.834C226.572 92.834 225.92 93.486 225.92 94.2904C225.92 95.0947 226.572 95.7468 227.376 95.7468Z" fill="#E6E6E6"/>
<path d="M229.124 50.8898C229.929 50.8898 230.581 50.2378 230.581 49.4334C230.581 48.6291 229.929 47.9771 229.124 47.9771C228.32 47.9771 227.668 48.6291 227.668 49.4334C227.668 50.2378 228.32 50.8898 229.124 50.8898Z" fill="#E6E6E6"/>
<path d="M235.824 77.1047C236.628 77.1047 237.28 76.4526 237.28 75.6483C237.28 74.844 236.628 74.1919 235.824 74.1919C235.019 74.1919 234.367 74.844 234.367 75.6483C234.367 76.4526 235.019 77.1047 235.824 77.1047Z" fill="#E6E6E6"/>
<path d="M234.368 74.7746C235.172 74.7746 235.824 74.1226 235.824 73.3182C235.824 72.5139 235.172 71.8618 234.368 71.8618C233.563 71.8618 232.911 72.5139 232.911 73.3182C232.911 74.1226 233.563 74.7746 234.368 74.7746Z" fill="#E6E6E6"/>
</g>
<defs>
<clipPath id="clip0_1434_31223">
<rect width="260" height="157.524" fill="white" transform="translate(0 0.737793)"/>
</clipPath>
</defs>
</svg>
