<svg width="260" height="159" viewBox="0 0 260 159" fill="none" xmlns="http://www.w3.org/2000/svg">
<g clip-path="url(#clip0_1438_35625)">
<path d="M21.5238 34.9134C28.9238 34.9134 34.9227 28.9146 34.9227 21.5146C34.9227 14.1146 28.9238 8.11572 21.5238 8.11572C14.1239 8.11572 8.125 14.1146 8.125 21.5146C8.125 28.9146 14.1239 34.9134 21.5238 34.9134Z" fill="#FF6584"/>
<path d="M129.329 158.262C200.755 158.262 258.658 155.915 258.658 153.019C258.658 150.124 200.755 147.776 129.329 147.776C57.9025 147.776 0 150.124 0 153.019C0 155.915 57.9025 158.262 129.329 158.262Z" fill="#35383F"/>
<path d="M32.9146 87.3116C51.0928 87.3116 65.8291 72.5752 65.8291 54.397C65.8291 36.2188 51.0928 21.4824 32.9146 21.4824C14.7364 21.4824 0 36.2188 0 54.397C0 72.5752 14.7364 87.3116 32.9146 87.3116Z" fill="#101010"/>
<path d="M36.0874 153.537H29.3457L32.419 49.4399L36.0874 153.537Z" fill="#3F3D56"/>
<path d="M33.0133 69.1688L40.2507 59.1558L32.9142 71.6473L32.1211 70.2593L33.0133 69.1688Z" fill="#3F3D56"/>
<path d="M32.2195 79.2811L24.9824 69.2681L32.3189 81.7596L33.112 80.3716L32.2195 79.2811Z" fill="#3F3D56"/>
<path d="M241.034 153.647H234.293L237.366 49.5493L241.034 153.647Z" fill="#3F3D56"/>
<path d="M237.962 69.2786L245.2 59.2656L237.863 71.7571L237.07 70.3692L237.962 69.2786Z" fill="#3F3D56"/>
<path d="M237.169 79.391L229.932 69.3779L237.268 81.8694L238.061 80.4815L237.169 79.391Z" fill="#3F3D56"/>
<path d="M133.714 153.629C167.577 153.629 195.029 126.177 195.029 92.3139C195.029 58.4504 167.577 30.9985 133.714 30.9985C99.8502 30.9985 72.3984 58.4504 72.3984 92.3139C72.3984 126.177 99.8502 153.629 133.714 153.629Z" fill="#3F3D56"/>
<path d="M133.714 148.554C164.774 148.554 189.954 123.375 189.954 92.3143C189.954 61.254 164.774 36.0747 133.714 36.0747C102.654 36.0747 77.4746 61.254 77.4746 92.3143C77.4746 123.375 102.654 148.554 133.714 148.554Z" fill="#757575"/>
<path d="M133.51 100.029C137.659 100.029 141.022 96.6659 141.022 92.517C141.022 88.3682 137.659 85.0049 133.51 85.0049C129.361 85.0049 125.998 88.3682 125.998 92.517C125.998 96.6659 129.361 100.029 133.51 100.029Z" fill="#3F3D56"/>
<path d="M135.135 38.917H131.887V45.0079H135.135V38.917Z" fill="#3F3D56"/>
<path d="M135.135 140.026H131.887V146.117H135.135V140.026Z" fill="#3F3D56"/>
<path d="M86.002 94.1416V90.8931H79.911V94.1416H86.002Z" fill="#3F3D56"/>
<path d="M187.111 94.1416V90.8931H181.02V94.1416H187.111Z" fill="#3F3D56"/>
<path d="M131.346 95.778L134.122 89.4302L168.908 108.696L131.346 95.778Z" fill="#3F3D56"/>
<path d="M141.631 16.1772H125.795V34.45H141.631V16.1772Z" fill="#3F3D56"/>
<path d="M133.714 21.2531C143.806 21.2531 151.987 18.9806 151.987 16.1773C151.987 13.3741 143.806 11.1016 133.714 11.1016C123.622 11.1016 115.441 13.3741 115.441 16.1773C115.441 18.9806 123.622 21.2531 133.714 21.2531Z" fill="#3F3D56"/>
<path d="M167.923 103.176L166.908 104.597C166.908 104.597 162.239 110.079 162.036 107.44C161.832 104.8 165.487 102.973 165.487 102.973L167.517 101.755L167.923 103.176Z" fill="#FFB8B8"/>
<path d="M196.825 107.971L197.676 109.497C197.676 109.497 200.632 116.063 198.159 115.117C195.687 114.171 195.599 110.086 195.599 110.086L195.367 107.73L196.825 107.971Z" fill="#FFB8B8"/>
<path d="M192.254 80.9171C195.669 80.9171 198.437 78.1492 198.437 74.7349C198.437 71.3206 195.669 68.5527 192.254 68.5527C188.84 68.5527 186.072 71.3206 186.072 74.7349C186.072 78.1492 188.84 80.9171 192.254 80.9171Z" fill="#2F2E41"/>
<path d="M191.68 125.51L192.492 130.788V132.413H197.162V130.382C197.162 130.382 197.365 126.728 196.552 125.713C195.74 124.698 191.68 125.51 191.68 125.51Z" fill="#FFB8B8"/>
<path d="M183.355 125.51L184.168 130.788V132.413H188.837V130.382C188.837 130.382 189.04 126.728 188.228 125.713C187.416 124.698 183.355 125.51 183.355 125.51Z" fill="#FFB8B8"/>
<path d="M186.496 83.1069C186.496 83.1069 184.7 84.0536 185.927 86.207C187.154 88.3604 194.351 110.638 194.351 110.638L198.504 109.46L194.842 95.3704L192.745 86.515L186.496 83.1069Z" fill="#101010"/>
<path d="M191.578 81.1475C194.157 81.1475 196.248 79.0568 196.248 76.4778C196.248 73.8988 194.157 71.8081 191.578 71.8081C188.999 71.8081 186.908 73.8988 186.908 76.4778C186.908 79.0568 188.999 81.1475 191.578 81.1475Z" fill="#FFB8B8"/>
<path d="M193.709 77.1885L193.1 86.7309L188.836 83.6855C188.836 83.6855 190.257 78.0006 189.851 77.5945L193.709 77.1885Z" fill="#FFB8B8"/>
<path d="M193.709 85.9188L189.116 82.5175C189.116 82.5175 187.009 81.6551 186.4 82.6703C185.791 83.6854 182.746 98.7097 184.37 101.552C184.37 101.552 193.1 103.379 194.927 102.364L195.74 97.0855C195.74 97.0855 196.755 93.837 195.13 91.8067L193.709 85.9188Z" fill="#101010"/>
<path d="M187.619 82.8732C187.619 82.8732 185.995 81.655 184.573 83.6853C183.152 85.7156 166.098 101.755 166.098 101.755L168.94 105.004L180.107 95.6641L187.213 89.9793L187.619 82.8732Z" fill="#101010"/>
<path d="M195.028 102.262C195.028 102.262 184.978 100.334 183.963 101.755L183.76 103.988C183.76 103.988 181.526 108.252 182.744 115.155C183.963 122.058 183.151 126.322 183.151 126.322C183.151 126.322 188.632 125.713 192.693 126.322C196.754 126.931 197.363 126.322 197.363 126.322L195.028 102.262Z" fill="#2F2E41"/>
<path d="M197.568 131.601L191.68 131.804L193.71 147.031C193.71 147.031 192.086 153.528 193.913 153.934C195.183 154.19 196.475 154.326 197.771 154.34C197.771 154.34 199.598 156.167 201.628 155.964C202.977 155.792 204.283 155.379 205.486 154.746C205.486 154.746 205.892 153.528 204.471 153.122C203.049 152.716 199.192 151.498 198.38 147.234L197.568 131.601Z" fill="#2F2E41"/>
<path d="M189.243 131.601L183.355 131.804L185.386 147.031C185.386 147.031 183.762 153.528 185.589 153.934C186.859 154.19 188.151 154.326 189.446 154.34C189.446 154.34 191.274 156.167 193.304 155.964C194.652 155.792 195.959 155.379 197.162 154.746C197.162 154.746 197.568 153.528 196.146 153.122C194.725 152.716 190.868 151.498 190.055 147.234L189.243 131.601Z" fill="#2F2E41"/>
<path d="M194.418 70.7867C195.83 70.7867 196.976 69.6414 196.976 68.2286C196.976 66.8157 195.83 65.6704 194.418 65.6704C193.005 65.6704 191.859 66.8157 191.859 68.2286C191.859 69.6414 193.005 70.7867 194.418 70.7867Z" fill="#2F2E41"/>
<path d="M197.827 66.8428C197.827 66.2105 197.593 65.6006 197.169 65.1307C196.746 64.6609 196.164 64.3644 195.535 64.2985C195.624 64.2893 195.713 64.2847 195.802 64.2847C196.48 64.2847 197.131 64.5542 197.611 65.0339C198.09 65.5137 198.36 66.1643 198.36 66.8428C198.36 67.5213 198.09 68.1719 197.611 68.6517C197.131 69.1314 196.48 69.401 195.802 69.401C195.713 69.4009 195.624 69.3963 195.535 69.3871C196.164 69.3212 196.746 69.0247 197.169 68.5549C197.593 68.0851 197.827 67.4751 197.827 66.8428Z" fill="#2F2E41"/>
<path d="M191.535 75.9825C193.89 75.9825 195.799 74.8372 195.799 73.4244C195.799 72.0115 193.89 70.8662 191.535 70.8662C189.18 70.8662 187.271 72.0115 187.271 73.4244C187.271 74.8372 189.18 75.9825 191.535 75.9825Z" fill="#2F2E41"/>
<path d="M258.691 13.0154C258.517 9.93629 257.255 7.01906 255.13 4.78388C253.005 2.5487 250.155 1.14084 247.089 0.811331C244.022 0.48182 240.939 1.25207 238.387 2.98475C235.836 4.71743 233.983 7.29991 233.158 10.2718C233.001 10.2661 232.843 10.2598 232.684 10.2598C229.873 10.2603 227.137 11.1711 224.886 12.856C222.635 14.5408 220.991 16.9091 220.198 19.6066C218.335 18.788 216.253 18.6104 214.278 19.1016C212.304 19.5928 210.548 20.7251 209.285 22.3211H249.879C251.063 22.3245 252.235 22.0888 253.327 21.6283C254.418 21.1677 255.404 20.4918 256.228 19.6408C257.052 18.7899 257.695 17.7816 258.12 16.6761C258.545 15.5707 258.742 14.3909 258.7 13.2074C258.698 13.1435 258.695 13.0795 258.691 13.0154Z" fill="#35383F"/>
<path d="M224.755 40.4038C226.686 40.4038 228.25 38.8389 228.25 36.9084C228.25 34.978 226.686 33.4131 224.755 33.4131C222.825 33.4131 221.26 34.978 221.26 36.9084C221.26 38.8389 222.825 40.4038 224.755 40.4038Z" fill="#35383F"/>
<path d="M235.309 31.5776C236.916 31.5776 238.219 30.2746 238.219 28.6672C238.219 27.0599 236.916 25.7568 235.309 25.7568C233.701 25.7568 232.398 27.0599 232.398 28.6672C232.398 30.2746 233.701 31.5776 235.309 31.5776Z" fill="#35383F"/>
<path d="M249.515 47.977C251.445 47.977 253.01 46.4121 253.01 44.4817C253.01 42.5513 251.445 40.9863 249.515 40.9863C247.584 40.9863 246.02 42.5513 246.02 44.4817C246.02 46.4121 247.584 47.977 249.515 47.977Z" fill="#35383F"/>
<path d="M223.007 63.9971C224.938 63.9971 226.502 62.4321 226.502 60.5017C226.502 58.5713 224.938 57.0063 223.007 57.0063C221.077 57.0063 219.512 58.5713 219.512 60.5017C219.512 62.4321 221.077 63.9971 223.007 63.9971Z" fill="#35383F"/>
<path d="M249.515 84.0957C251.445 84.0957 253.01 82.5308 253.01 80.6003C253.01 78.6699 251.445 77.105 249.515 77.105C247.584 77.105 246.02 78.6699 246.02 80.6003C246.02 82.5308 247.584 84.0957 249.515 84.0957Z" fill="#35383F"/>
<path d="M243.974 147.999C243.975 147.961 243.98 147.924 243.98 147.886C243.98 147.3 243.834 146.724 243.554 146.21C243.273 145.695 242.868 145.26 242.375 144.944C241.882 144.627 241.317 144.44 240.733 144.399C240.149 144.358 239.564 144.465 239.032 144.71C238.532 144.133 237.858 143.737 237.111 143.58C236.365 143.424 235.588 143.517 234.899 143.845C234.21 144.172 233.648 144.717 233.299 145.395C232.949 146.072 232.831 146.846 232.964 147.597C232.946 147.597 232.929 147.595 232.911 147.595C232.355 147.594 231.806 147.726 231.311 147.98C230.816 148.233 230.388 148.602 230.064 149.054C229.74 149.507 229.529 150.03 229.448 150.58C229.366 151.131 229.418 151.693 229.598 152.219C229.777 152.746 230.08 153.222 230.481 153.608C230.882 153.994 231.369 154.279 231.902 154.438C232.435 154.598 232.999 154.628 233.546 154.526C234.093 154.424 234.608 154.193 235.047 153.852C235.325 154.393 235.738 154.852 236.247 155.183C236.756 155.515 237.343 155.709 237.949 155.744C238.556 155.78 239.161 155.657 239.706 155.388C240.25 155.118 240.715 154.711 241.054 154.207C241.47 154.509 241.948 154.716 242.453 154.813C242.958 154.91 243.478 154.893 243.976 154.766C244.475 154.638 244.938 154.402 245.335 154.074C245.731 153.746 246.05 153.335 246.269 152.869C246.488 152.404 246.601 151.896 246.601 151.381C246.601 150.867 246.487 150.359 246.268 149.894C246.049 149.429 245.729 149.017 245.333 148.69C244.936 148.362 244.472 148.126 243.974 147.999Z" fill="#35383F"/>
<path d="M252.718 68.0754C253.522 68.0754 254.175 67.4233 254.175 66.619C254.175 65.8146 253.522 65.1626 252.718 65.1626C251.914 65.1626 251.262 65.8146 251.262 66.619C251.262 67.4233 251.914 68.0754 252.718 68.0754Z" fill="#35383F"/>
<path d="M243.398 33.1218C244.202 33.1218 244.854 32.4697 244.854 31.6654C244.854 30.861 244.202 30.209 243.398 30.209C242.593 30.209 241.941 30.861 241.941 31.6654C241.941 32.4697 242.593 33.1218 243.398 33.1218Z" fill="#35383F"/>
<path d="M238.445 69.2404C239.249 69.2404 239.901 68.5884 239.901 67.784C239.901 66.9797 239.249 66.3276 238.445 66.3276C237.64 66.3276 236.988 66.9797 236.988 67.784C236.988 68.5884 237.64 69.2404 238.445 69.2404Z" fill="#35383F"/>
<path d="M239.611 67.7839C240.415 67.7839 241.067 67.1318 241.067 66.3275C241.067 65.5231 240.415 64.8711 239.611 64.8711C238.806 64.8711 238.154 65.5231 238.154 66.3275C238.154 67.1318 238.806 67.7839 239.611 67.7839Z" fill="#35383F"/>
<path d="M240.484 66.3273C241.288 66.3273 241.94 65.6753 241.94 64.8709C241.94 64.0666 241.288 63.4146 240.484 63.4146C239.679 63.4146 239.027 64.0666 239.027 64.8709C239.027 65.6753 239.679 66.3273 240.484 66.3273Z" fill="#35383F"/>
<path d="M236.99 78.5612C237.794 78.5612 238.446 77.9092 238.446 77.1048C238.446 76.3005 237.794 75.6484 236.99 75.6484C236.185 75.6484 235.533 76.3005 235.533 77.1048C235.533 77.9092 236.185 78.5612 236.99 78.5612Z" fill="#35383F"/>
<path d="M258.544 94.8728C259.349 94.8728 260.001 94.2207 260.001 93.4164C260.001 92.612 259.349 91.96 258.544 91.96C257.74 91.96 257.088 92.612 257.088 93.4164C257.088 94.2207 257.74 94.8728 258.544 94.8728Z" fill="#35383F"/>
<path d="M227.376 95.7468C228.181 95.7468 228.833 95.0947 228.833 94.2904C228.833 93.486 228.181 92.834 227.376 92.834C226.572 92.834 225.92 93.486 225.92 94.2904C225.92 95.0947 226.572 95.7468 227.376 95.7468Z" fill="#35383F"/>
<path d="M229.124 50.8898C229.929 50.8898 230.581 50.2378 230.581 49.4334C230.581 48.6291 229.929 47.9771 229.124 47.9771C228.32 47.9771 227.668 48.6291 227.668 49.4334C227.668 50.2378 228.32 50.8898 229.124 50.8898Z" fill="#35383F"/>
<path d="M235.824 77.1047C236.628 77.1047 237.28 76.4526 237.28 75.6483C237.28 74.844 236.628 74.1919 235.824 74.1919C235.019 74.1919 234.367 74.844 234.367 75.6483C234.367 76.4526 235.019 77.1047 235.824 77.1047Z" fill="#35383F"/>
<path d="M234.367 74.7746C235.171 74.7746 235.823 74.1226 235.823 73.3182C235.823 72.5139 235.171 71.8618 234.367 71.8618C233.562 71.8618 232.91 72.5139 232.91 73.3182C232.91 74.1226 233.562 74.7746 234.367 74.7746Z" fill="#35383F"/>
</g>
<defs>
<clipPath id="clip0_1438_35625">
<rect width="260" height="157.524" fill="white" transform="translate(0 0.737793)"/>
</clipPath>
</defs>
</svg>
