<svg width="80" height="80" viewBox="0 0 80 80" fill="none" xmlns="http://www.w3.org/2000/svg">
<path d="M66.666 36.6666V13.3333H43.3327L52.6427 22.6433L38.236 37.05C34.8621 34.6332 30.8162 33.3335 26.666 33.3333C15.636 33.3333 6.66602 42.3033 6.66602 53.3333C6.66602 64.3633 15.636 73.3333 26.666 73.3333C37.696 73.3333 46.666 64.3633 46.666 53.3333C46.666 49.02 45.2793 45.0333 42.9493 41.7633L57.356 27.3566L66.666 36.6666ZM26.666 66.6666C19.3127 66.6666 13.3327 60.6866 13.3327 53.3333C13.3327 45.98 19.3127 40 26.666 40C34.0193 40 39.9993 45.98 39.9993 53.3333C39.9993 60.6866 34.0193 66.6666 26.666 66.6666Z" fill="white"/>
</svg>
