<svg width="150" height="150" viewBox="0 0 186 180" fill="none" xmlns="http://www.w3.org/2000/svg">
<circle cx="95.5" cy="90.5" r="70.5" fill="url(#paint0_linear_1387_12918)"/>
<circle cx="178.467" cy="27.5" r="7.5" fill="url(#paint1_linear_1387_12918)"/>
<circle cx="20.0332" cy="10" r="10" fill="url(#paint2_linear_1387_12918)"/>
<circle cx="10.0332" cy="133" r="5" fill="url(#paint3_linear_1387_12918)"/>
<circle cx="165.533" cy="160.5" r="2.5" fill="url(#paint4_linear_1387_12918)"/>
<path fill-rule="evenodd" clip-rule="evenodd" d="M108.514 78.9238C108.514 86.144 102.725 91.9335 95.4997 91.9335C88.2768 91.9335 82.4853 86.144 82.4853 78.9238C82.4853 71.7036 88.2768 65.9167 95.4997 65.9167C102.725 65.9167 108.514 71.7036 108.514 78.9238ZM95.4997 115.083C84.8363 115.083 75.833 113.35 75.833 106.663C75.833 99.9743 84.8929 98.3026 95.4997 98.3026C106.165 98.3026 115.166 100.036 115.166 106.722C115.166 113.412 106.106 115.083 95.4997 115.083Z" fill="white"/>
<circle cx="106.533" cy="4.5" r="2.5" fill="url(#paint5_linear_1387_12918)"/>
<circle cx="62.5332" cy="176.5" r="3.5" fill="url(#paint6_linear_1387_12918)"/>
<circle cx="122.033" cy="171" r="1" fill="url(#paint7_linear_1387_12918)"/>
<circle cx="170.533" cy="110.5" r="2.5" fill="url(#paint8_linear_1387_12918)"/>
<circle cx="1.0332" cy="75" r="1" fill="url(#paint9_linear_1387_12918)"/>
<defs>
<linearGradient id="paint0_linear_1387_12918" x1="166" y1="161" x2="-1.77734" y2="112.355" gradientUnits="userSpaceOnUse">
<stop stop-color="#101010"/>
<stop offset="1" stop-color="#313130"/>
</linearGradient>
<linearGradient id="paint1_linear_1387_12918" x1="185.967" y1="35" x2="168.118" y2="29.8249" gradientUnits="userSpaceOnUse">
<stop stop-color="#101010"/>
<stop offset="1" stop-color="#313130"/>
</linearGradient>
<linearGradient id="paint2_linear_1387_12918" x1="30.0332" y1="20" x2="6.235" y2="13.0999" gradientUnits="userSpaceOnUse">
<stop stop-color="#101010"/>
<stop offset="1" stop-color="#313130"/>
</linearGradient>
<linearGradient id="paint3_linear_1387_12918" x1="15.0332" y1="138" x2="3.1341" y2="134.55" gradientUnits="userSpaceOnUse">
<stop stop-color="#101010"/>
<stop offset="1" stop-color="#313130"/>
</linearGradient>
<linearGradient id="paint4_linear_1387_12918" x1="168.033" y1="163" x2="162.084" y2="161.275" gradientUnits="userSpaceOnUse">
<stop stop-color="#101010"/>
<stop offset="1" stop-color="#313130"/>
</linearGradient>
<linearGradient id="paint5_linear_1387_12918" x1="109.033" y1="7" x2="103.084" y2="5.27498" gradientUnits="userSpaceOnUse">
<stop stop-color="#101010"/>
<stop offset="1" stop-color="#313130"/>
</linearGradient>
<linearGradient id="paint6_linear_1387_12918" x1="66.0332" y1="180" x2="57.7038" y2="177.585" gradientUnits="userSpaceOnUse">
<stop stop-color="#101010"/>
<stop offset="1" stop-color="#313130"/>
</linearGradient>
<linearGradient id="paint7_linear_1387_12918" x1="123.033" y1="172" x2="120.653" y2="171.31" gradientUnits="userSpaceOnUse">
<stop stop-color="#101010"/>
<stop offset="1" stop-color="#313130"/>
</linearGradient>
<linearGradient id="paint8_linear_1387_12918" x1="173.033" y1="113" x2="167.084" y2="111.275" gradientUnits="userSpaceOnUse">
<stop stop-color="#101010"/>
<stop offset="1" stop-color="#313130"/>
</linearGradient>
<linearGradient id="paint9_linear_1387_12918" x1="2.0332" y1="76" x2="-0.346617" y2="75.31" gradientUnits="userSpaceOnUse">
<stop stop-color="#101010"/>
<stop offset="1" stop-color="#313130"/>
</linearGradient>
</defs>
</svg>
