<svg width="150" height="150" viewBox="0 0 186 180" fill="none" xmlns="http://www.w3.org/2000/svg">
<circle cx="95.5" cy="90.5" r="70.5" fill="white"/>
<circle cx="178.467" cy="27.5" r="7.5" fill="white"/>
<circle cx="20.0332" cy="10" r="10" fill="white"/>
<circle cx="10.0332" cy="133" r="5" fill="white"/>
<circle cx="165.533" cy="160.5" r="2.5" fill="white"/>
<path fill-rule="evenodd" clip-rule="evenodd" d="M108.515 78.9238C108.515 86.144 102.726 91.9335 95.5007 91.9335C88.2778 91.9335 82.4863 86.144 82.4863 78.9238C82.4863 71.7036 88.2778 65.9167 95.5007 65.9167C102.726 65.9167 108.515 71.7036 108.515 78.9238ZM95.5007 115.083C84.8373 115.083 75.834 113.35 75.834 106.663C75.834 99.9743 84.8939 98.3026 95.5007 98.3026C106.166 98.3026 115.167 100.036 115.167 106.722C115.167 113.412 106.107 115.083 95.5007 115.083Z" fill="#35383F"/>
<circle cx="106.533" cy="4.5" r="2.5" fill="white"/>
<circle cx="62.5332" cy="176.5" r="3.5" fill="white"/>
<circle cx="122.033" cy="171" r="1" fill="white"/>
<circle cx="170.533" cy="110.5" r="2.5" fill="white"/>
<circle cx="1.0332" cy="75" r="1" fill="white"/>
</svg>
