<svg width="200" height="240" viewBox="0 0 200 240" fill="none" xmlns="http://www.w3.org/2000/svg">
<g clip-path="url(#clip0_1434_31548)">
<path d="M77.4619 196.452C73.4823 192.348 67.7154 189.994 61.6397 189.994L61.4053 189.995C57.4035 189.996 53.473 188.935 50.0159 186.919L49.6562 186.709L49.9459 186.411C51.5146 184.788 52.8243 182.933 53.8294 180.912C53.1156 181.578 52.2642 182.078 51.3355 182.378C50.4068 182.678 49.4235 182.771 48.4553 182.649C47.433 182.527 46.4516 182.175 45.5847 181.62C44.7178 181.064 43.9879 180.32 43.4497 179.442C41.3262 175.997 38.7949 171.108 38.7949 167.384C38.7982 164.236 39.4574 161.123 40.7303 158.244C42.0033 155.365 43.8621 152.782 46.1883 150.662C47.661 149.334 48.8373 147.71 49.6406 145.897C50.4438 144.084 50.8559 142.122 50.8501 140.139L50.8489 139.857C50.8485 137.246 51.1675 134.645 51.7989 132.112L51.863 131.856L52.1262 131.866C53.8234 131.923 55.5215 131.781 57.1855 131.442C55.6247 131.25 54.0978 130.844 52.6481 130.235L52.365 130.12L52.4611 129.83C59.0849 125.729 74.0368 127.853 82.7154 107.997C89.7525 91.8964 114.582 122.289 114.582 139.857C114.582 141.65 112.808 144.018 114.136 145.203C128.492 158.011 118.586 166.236 115.463 174.511C114.722 176.475 116.329 178.63 116.329 180.755C116.329 181.115 116.32 181.487 116.302 181.861L116.274 182.435L115.795 182.116C114.848 181.496 113.971 180.776 113.177 179.968C114 181.863 114.388 183.918 114.312 185.983C114.237 188.047 113.699 190.068 112.739 191.897C111.234 194.737 109.779 196.77 108.413 197.939C104.037 201.684 98.3952 203.616 92.6421 203.339C86.889 203.063 81.4588 200.599 77.4619 196.452H77.4619Z" fill="#E6E6E6"/>
<path d="M101.497 239.172C101.595 239.172 101.689 239.137 101.763 239.072C101.837 239.008 101.885 238.92 101.899 238.823C101.916 238.701 103.609 226.497 102.089 210.278C100.685 195.299 96.1783 173.724 82.6766 156.004C82.6443 155.962 82.6039 155.926 82.5577 155.899C82.5116 155.872 82.4605 155.855 82.4076 155.847C82.3546 155.84 82.3008 155.844 82.2491 155.857C82.1974 155.871 82.149 155.895 82.1065 155.927C82.0639 155.959 82.0283 156 82.0014 156.046C81.9745 156.092 81.957 156.143 81.9499 156.196C81.9428 156.249 81.9462 156.303 81.9599 156.355C81.9736 156.406 81.9973 156.455 82.0298 156.497C95.4148 174.064 99.8856 195.48 101.279 210.354C102.79 226.479 101.111 238.588 101.094 238.708C101.086 238.766 101.09 238.825 101.107 238.881C101.123 238.936 101.152 238.988 101.19 239.032C101.228 239.076 101.275 239.111 101.328 239.135C101.381 239.16 101.439 239.172 101.497 239.172V239.172Z" fill="#3F3D56"/>
<path d="M90.4795 180.998C90.5654 180.998 90.6491 180.971 90.7186 180.92C90.7882 180.87 90.8399 180.799 90.8665 180.717C90.8931 180.635 90.8931 180.547 90.8666 180.466C90.8401 180.384 90.7884 180.313 90.7189 180.262C86.8717 177.658 82.7157 175.543 78.3464 173.964C71.5203 171.465 61.1402 169.199 50.4541 172.6C50.4031 172.617 50.3558 172.643 50.3149 172.677C50.2739 172.711 50.2402 172.754 50.2156 172.801C50.191 172.848 50.1759 172.9 50.1714 172.954C50.1668 173.007 50.1728 173.061 50.1891 173.112C50.2053 173.162 50.2314 173.21 50.2659 173.251C50.3004 173.291 50.3426 173.325 50.3902 173.35C50.4377 173.374 50.4896 173.389 50.5428 173.393C50.5961 173.398 50.6498 173.392 50.7007 173.375C61.1679 170.044 71.3599 172.272 78.0668 174.728C82.3658 176.279 86.4552 178.359 90.2408 180.92C90.3101 180.971 90.3937 180.998 90.4795 180.998Z" fill="#3F3D56"/>
<path d="M109.09 134.646C109.096 134.561 109.075 134.475 109.029 134.402C108.984 134.329 108.917 134.272 108.837 134.24C108.758 134.208 108.67 134.201 108.587 134.222C108.503 134.242 108.429 134.289 108.373 134.354C105.499 138.004 103.089 141.997 101.2 146.241C98.2161 152.87 95.2089 163.06 97.8315 173.963C97.8439 174.015 97.8665 174.064 97.8979 174.107C97.9292 174.15 97.9688 174.187 98.0144 174.215C98.06 174.243 98.1106 174.262 98.1634 174.27C98.2161 174.278 98.2701 174.276 98.322 174.264C98.374 174.251 98.423 174.229 98.4662 174.197C98.5094 174.166 98.546 174.126 98.5738 174.08C98.6017 174.035 98.6203 173.984 98.6286 173.931C98.6369 173.879 98.6347 173.825 98.6221 173.773C96.0534 163.093 99.0097 153.088 101.942 146.575C103.799 142.399 106.168 138.47 108.995 134.879C109.05 134.813 109.083 134.732 109.09 134.646Z" fill="#3F3D56"/>
<path d="M187.522 238.742H155.152L155.013 238.489C154.599 237.739 154.199 236.943 153.826 236.126C150.491 228.988 149.082 220.823 147.839 213.62L146.902 208.191C146.789 207.533 146.874 206.857 147.148 206.248C147.421 205.639 147.87 205.126 148.436 204.774C149.003 204.421 149.662 204.246 150.329 204.271C150.996 204.295 151.64 204.518 152.179 204.911C157.099 208.491 162.02 212.067 166.943 215.64C168.807 216.996 170.936 218.566 172.975 220.262C173.172 219.307 173.378 218.349 173.583 217.404C173.725 216.751 174.059 216.156 174.541 215.694C175.023 215.232 175.632 214.925 176.29 214.811C176.948 214.697 177.625 214.782 178.234 215.056C178.843 215.329 179.357 215.777 179.71 216.344L183.497 222.429C186.259 226.873 188.697 231.252 188.201 235.974C188.203 236.032 188.199 236.089 188.188 236.146C188.088 236.922 187.904 237.684 187.638 238.42L187.522 238.742Z" fill="#F0F0F0"/>
<path d="M172.441 111.482L166.194 88.3589C165.926 87.38 165.285 86.5456 164.407 86.0357C163.53 85.5258 162.487 85.3813 161.504 85.6334C160.996 85.7638 160.519 85.9964 160.104 86.317C159.688 86.6376 159.342 87.0396 159.087 87.4983C158.831 87.957 158.672 88.4629 158.619 88.9851C158.565 89.5074 158.619 90.035 158.776 90.5359L166.002 114.356L169.782 129.015C169.232 129.435 168.824 130.015 168.614 130.675C168.404 131.336 168.403 132.044 168.61 132.705C168.818 133.366 169.223 133.948 169.772 134.37C170.321 134.793 170.987 135.036 171.679 135.067C172.371 135.097 173.056 134.915 173.641 134.543C174.225 134.171 174.681 133.628 174.946 132.988C175.211 132.348 175.273 131.642 175.123 130.966C174.973 130.289 174.619 129.676 174.108 129.208L172.441 111.482Z" fill="#A0616A"/>
<path d="M119.872 106.502L138.854 91.8936C139.656 91.2723 140.182 90.3605 140.318 89.3548C140.454 88.3492 140.189 87.3305 139.581 86.5184C139.266 86.0983 138.869 85.7467 138.414 85.4851C137.958 85.2234 137.455 85.0572 136.933 84.9966C136.412 84.9359 135.884 84.9821 135.381 85.1323C134.878 85.2825 134.41 85.5336 134.008 85.8702L114.756 101.649L102.653 110.744C102.054 110.395 101.363 110.24 100.673 110.298C99.9823 110.357 99.3268 110.627 98.7951 111.071C98.2634 111.515 97.8813 112.112 97.7007 112.781C97.5201 113.449 97.5497 114.158 97.7856 114.809C98.0215 115.46 98.4522 116.023 99.0191 116.421C99.5861 116.819 100.262 117.033 100.955 117.034C101.647 117.034 102.324 116.822 102.891 116.425C103.459 116.028 103.891 115.466 104.128 114.815L119.872 106.502Z" fill="#A0616A"/>
<path d="M135.343 109.859L134.506 128.546L160.777 122.836C158.541 115.327 157.02 114.047 158.7 108.821L135.343 109.859Z" fill="#A0616A"/>
<path d="M151.496 75.6025H142.742L138.983 82.0353L137.192 81.9364C136.316 81.888 135.439 82.0188 134.615 82.3208C133.791 82.6227 133.038 83.0895 132.4 83.6926C131.763 84.2957 131.256 85.0224 130.909 85.8284C130.562 86.6343 130.383 87.5025 130.383 88.3799L132.59 91.8006C132.59 91.8006 128.643 98.6795 134.328 102.064C134.328 102.064 133.314 108.44 134.328 108.371C135.343 108.303 137.678 107.005 135.343 108.303C133.007 109.6 133.181 109.775 133.483 110.077L133.785 110.379L158.346 114.503C158.346 114.503 159.065 109.742 159.142 108.892C159.22 108.043 158.7 110.119 159.22 108.043C159.739 105.967 160.517 106.745 159.739 105.967C158.96 105.188 164.783 95.5422 162.391 91.8006L166.227 88.059C166.227 84.47 160.463 81.5604 156.873 81.5604H156.414L151.496 75.6025Z" fill="#E6E6E6"/>
<path d="M130.405 231.538H126.862L125.177 217.872L130.406 217.872L130.405 231.538Z" fill="#A0616A"/>
<path d="M119.712 236.765C119.713 237.162 119.871 237.542 120.152 237.823C120.432 238.104 120.812 238.263 121.209 238.265H127.879L128.085 237.837L129.029 235.891L129.394 237.837L129.475 238.265H131.99L131.954 237.834L131.284 229.79L130.406 229.736L126.615 229.511L125.683 229.455V231.856C124.976 232.608 119.43 235.45 119.712 236.765Z" fill="#2F2E41"/>
<path d="M183.06 222.257L180.081 224.174L171.27 213.593L175.667 210.764L183.06 222.257Z" fill="#A0616A"/>
<path d="M176.895 232.439C177.112 232.772 177.45 233.006 177.838 233.091C178.226 233.176 178.631 233.104 178.966 232.891L184.576 229.283L184.518 228.811L184.258 226.663L185.618 228.103L185.918 228.419L188.034 227.058L187.77 226.715L182.854 220.312L182.087 220.742L178.777 222.604L177.962 223.06L179.262 225.08C179.074 226.095 175.947 231.486 176.895 232.439Z" fill="#2F2E41"/>
<path d="M199.588 238.991L89.8799 239.098C89.7704 239.097 89.6656 239.054 89.5884 238.976C89.5111 238.898 89.4678 238.793 89.4678 238.684C89.4678 238.574 89.5111 238.469 89.5884 238.392C89.6656 238.314 89.7704 238.27 89.8799 238.27L199.588 238.163C199.697 238.163 199.802 238.207 199.879 238.285C199.957 238.362 200 238.467 200 238.577C200 238.686 199.957 238.791 199.879 238.869C199.802 238.947 199.697 238.99 199.588 238.991Z" fill="#CACACA"/>
<path d="M160.365 120.726C160.365 120.726 143.572 129.608 134.69 123.548C134.69 123.548 132.747 132.958 131.968 133.737C131.19 134.515 129.949 134.855 130.829 135.723C131.709 136.592 132.198 137.765 130.526 139.254C128.854 140.744 127.186 140.272 128.799 141.806C130.411 143.34 123.923 180.972 123.923 180.972C123.923 180.972 124.961 215.968 123.923 217.027C122.885 218.085 121.497 218.322 122.84 219.631C124.182 220.94 124.182 219.925 124.182 221.73V223.535L124.797 225.329H133.223C133.223 225.329 135.257 222.967 133.223 220.915C131.19 218.864 133.842 218.302 134.462 216.377C135.083 214.451 136.121 216.528 135.083 214.451C134.045 212.375 133.546 212.77 133.536 211.405C133.525 210.039 148.838 156.576 148.838 156.576L150.692 186.167L173.001 218.575L179.567 213.65C179.567 213.65 174.786 206.92 175.904 205.995C177.022 205.07 172.609 203.909 174.001 202.866C175.392 201.822 172.043 200.77 173.305 199.387C174.567 198.003 171.566 194.516 169.826 194.516C168.087 194.516 165.646 188.704 165.646 188.704L169.29 142.786L160.365 120.726Z" fill="#2F2E41"/>
<path d="M142.566 56.714C142.447 56.8701 141.501 56.7861 140.362 56.6198C138.111 56.2911 137.804 56.6817 136.121 58.2125C133.683 60.43 135.069 73.9553 133.871 76.8858L133.484 77.171C134.252 77.0244 135.006 76.8134 135.738 76.5403C136.152 75.2352 136.567 73.9259 136.984 72.6219C137.378 73.6365 137.626 74.702 137.72 75.7865C138.3 75.558 138.876 74.9993 141.297 74.2501C142.516 73.4229 151.338 72.5912 152.472 72.2273C155.35 62.4348 150.712 58.4747 142.566 56.714Z" fill="#2F2E41"/>
<path d="M145.545 71.8144C150.2 71.8144 153.975 68.0403 153.975 63.3847C153.975 58.7292 150.2 54.9551 145.545 54.9551C140.889 54.9551 137.115 58.7292 137.115 63.3847C137.115 68.0403 140.889 71.8144 145.545 71.8144Z" fill="#A0616A"/>
<path d="M150.852 55.9713C150.377 55.9012 149.919 55.7409 149.504 55.499C149.299 55.3748 149.132 55.1953 149.024 54.9809C148.915 54.7666 148.869 54.5261 148.891 54.2868C148.995 53.6879 149.672 53.3302 150.279 53.3667C150.883 53.4538 151.457 53.686 151.952 54.0436C151.897 53.4648 151.65 52.921 151.249 52.4997C150.849 52.0783 150.318 51.8037 149.743 51.7202C150.541 51.6772 151.371 51.6392 152.109 51.9462C152.847 52.2531 153.462 53.0131 153.329 53.8012C154.569 53.6414 155.793 54.5058 156.305 55.6471C156.817 56.7884 156.716 58.1286 156.306 59.3107C156.266 59.4917 156.187 59.662 156.075 59.8099C155.963 59.9578 155.821 60.0799 155.658 60.168C155.24 60.3264 154.791 60.0607 154.429 59.7988C152.539 58.4304 150.819 56.8418 149.305 55.0665" fill="#2F2E41"/>
<path d="M154.527 72.347C154.17 72.5152 154.356 73.1411 154.078 73.4214C153.957 73.5401 153.812 73.6306 153.652 73.6862C153.611 73.1638 153.489 72.6508 153.292 72.1653C153.255 72.0771 153.196 71.9784 153.102 71.9862C152.993 71.9992 152.965 72.142 152.962 72.2484C152.94 72.7762 152.823 73.2958 152.617 73.7822C152.614 73.7874 152.612 73.7952 152.609 73.8004C152.529 73.7978 152.446 73.7952 152.368 73.7926C151.766 73.7692 150.432 72.2224 150.136 72.7467C151.179 70.8962 152.451 68.114 152.645 65.9988C152.713 65.556 152.68 65.1037 152.549 64.6752C152.481 64.462 152.353 64.2729 152.181 64.1303C152.008 63.9877 151.798 63.8976 151.576 63.8706C151.466 63.8657 151.357 63.8849 151.256 63.9271C151.155 63.9693 151.064 64.0334 150.99 64.1147C150.917 64.1961 150.862 64.2927 150.83 64.3976C150.798 64.5026 150.789 64.6133 150.805 64.7219L150.655 64.7012C149.258 63.5644 150.463 61.5893 148.838 60.8082C148.288 60.5434 144.919 61.4285 144.325 61.2727C144.312 60.6467 144.184 60.0282 143.948 59.4482C143.912 59.36 143.852 59.2614 143.759 59.2692C143.65 59.2821 143.621 59.4249 143.619 59.5313C143.597 60.0591 143.48 60.5787 143.274 61.0651C142.45 60.9483 141.612 60.9924 140.805 61.1949C140.094 61.3817 139.42 61.7036 138.706 61.8749C138.353 61.983 137.982 62.018 137.615 61.9778C137.248 61.9377 136.894 61.8232 136.573 61.6413C135.667 61.034 135.508 59.6896 135.96 58.6982C136.287 58.062 136.729 57.4918 137.263 57.0164C137.67 56.6219 138.093 56.243 138.516 55.8641C138.895 55.5241 139.274 55.1841 139.653 54.8441C140.13 54.3952 140.638 53.9806 141.174 53.6035C142.029 53.043 142.99 52.6631 143.997 52.4873C145.005 52.3114 146.037 52.3433 147.032 52.581C148.226 52.8665 149.822 52.4642 150.914 53.0222C151.485 53.3154 152.749 54.4392 153.25 54.8389C154.532 55.8589 153.665 55.0278 155.067 55.6175C158.411 57.0237 156.932 71.2148 154.527 72.347Z" fill="#2F2E41"/>
<path d="M61.1915 133.874C90.0636 133.874 113.469 110.468 113.469 81.5963C113.469 52.7243 90.0636 29.3188 61.1915 29.3188C32.3195 29.3188 8.91406 52.7243 8.91406 81.5963C8.91406 110.468 32.3195 133.874 61.1915 133.874Z" fill="white"/>
<path d="M61.1919 134.396C32.0783 134.396 8.39258 110.71 8.39258 81.5967C8.39258 52.4831 32.0783 28.7974 61.1919 28.7974C90.3054 28.7974 113.991 52.4831 113.991 81.5967C113.991 110.71 90.3054 134.396 61.1919 134.396ZM61.1919 29.841C32.6538 29.841 9.43623 53.0586 9.43623 81.5967C9.43623 110.135 32.6538 133.352 61.1919 133.352C89.73 133.352 112.948 110.135 112.948 81.5967C112.948 53.0586 89.7299 29.841 61.1919 29.841Z" fill="#101010"/>
<path d="M54.06 108.805C53.1573 108.805 52.2669 108.594 51.4595 108.191C50.6521 107.787 49.9499 107.2 49.4084 106.478L35.1463 87.4616C34.6881 86.8507 34.3548 86.1555 34.1653 85.4158C33.9758 84.676 33.9338 83.9062 34.0419 83.1502C34.1499 82.3943 34.4057 81.667 34.7948 81.0099C35.1839 80.3528 35.6986 79.7788 36.3096 79.3206C36.9205 78.8625 37.6157 78.5291 38.3554 78.3396C39.0952 78.1501 39.865 78.1082 40.621 78.2162C41.3769 78.3242 42.1042 78.5801 42.7613 78.9692C43.4184 79.3583 43.9924 79.873 44.4505 80.4839L53.7813 92.924L77.7461 56.9772C78.6021 55.695 79.9322 54.8051 81.444 54.5032C82.9559 54.2013 84.5257 54.5121 85.8085 55.3673C87.0912 56.2225 87.9819 57.552 88.2847 59.0637C88.5875 60.5753 88.2777 62.1454 87.4233 63.4286L58.8991 106.215C58.3831 106.989 57.6891 107.628 56.8753 108.078C56.0615 108.528 55.1516 108.777 54.2219 108.803C54.1679 108.804 54.114 108.805 54.06 108.805Z" fill="#101010"/>
<path d="M115.053 32.5855C115.199 31.586 114.152 30.6063 112.715 30.3973C111.278 30.1882 109.996 30.829 109.85 31.8285C109.705 32.8279 110.752 33.8076 112.188 34.0167C113.625 34.2257 114.908 33.5849 115.053 32.5855Z" fill="#E6E6E6"/>
<path d="M132.159 30.9161C132.304 29.9166 131.257 28.9369 129.82 28.7279C128.384 28.5188 127.101 29.1596 126.956 30.1591C126.81 31.1585 127.857 32.1382 129.294 32.3473C130.731 32.5563 132.013 31.9155 132.159 30.9161Z" fill="#3F3D56"/>
<path d="M110.369 18.7368C110.514 17.7374 109.467 16.7577 108.03 16.5486C106.594 16.3396 105.311 16.9804 105.166 17.9798C105.02 18.9793 106.067 19.959 107.504 20.1681C108.941 20.3771 110.223 19.7363 110.369 18.7368Z" fill="#FF6584"/>
<path d="M102.935 13.0641C102.942 12.1465 102.43 11.3988 101.792 11.394C101.154 11.3891 100.631 12.1291 100.624 13.0466C100.617 13.9642 101.129 14.7119 101.767 14.7167C102.405 14.7216 102.928 13.9817 102.935 13.0641Z" fill="#E6E6E6"/>
<path d="M100.415 2.49818C100.422 1.58063 99.91 0.832884 99.2717 0.828058C98.6334 0.823231 98.1103 1.56315 98.1034 2.4807C98.0964 3.39826 98.6083 4.146 99.2466 4.15083C99.8849 4.15566 100.408 3.41574 100.415 2.49818Z" fill="#3F3D56"/>
<path d="M120.016 21.0934C120.023 20.1758 119.512 19.4281 118.873 19.4233C118.235 19.4184 117.712 20.1584 117.705 21.0759C117.698 21.9935 118.21 22.7412 118.848 22.746C119.486 22.7509 120.009 22.011 120.016 21.0934Z" fill="#E6E6E6"/>
<path d="M111.75 25.2209C111.757 24.3033 111.245 23.5556 110.607 23.5507C109.968 23.5459 109.445 24.2858 109.438 25.2034C109.431 26.1209 109.943 26.8687 110.582 26.8735C111.22 26.8783 111.743 26.1384 111.75 25.2209Z" fill="#FF6584"/>
<path d="M123.258 32.8488C123.265 31.9312 122.753 31.1835 122.114 31.1787C121.476 31.1738 120.953 31.9138 120.946 32.8313C120.939 33.7489 121.451 34.4966 122.089 34.5014C122.728 34.5062 123.251 33.7663 123.258 32.8488Z" fill="#3F3D56"/>
<path d="M16.9496 156.432C17.095 155.433 16.0482 154.453 14.6115 154.244C13.1747 154.035 11.8921 154.676 11.7467 155.675C11.6013 156.675 12.6481 157.654 14.0848 157.863C15.5216 158.072 16.8042 157.432 16.9496 156.432Z" fill="#E6E6E6"/>
<path d="M34.0551 154.763C34.2005 153.764 33.1537 152.784 31.7169 152.575C30.2802 152.366 28.9976 153.007 28.8522 154.006C28.7068 155.006 29.7536 155.985 31.1903 156.194C32.6271 156.403 33.9096 155.763 34.0551 154.763Z" fill="#3F3D56"/>
<path d="M12.265 142.584C12.4105 141.584 11.3636 140.604 9.9269 140.395C8.49016 140.186 7.20755 140.827 7.06213 141.827C6.91671 142.826 7.96354 143.806 9.40029 144.015C10.837 144.224 12.1196 143.583 12.265 142.584Z" fill="#FF6584"/>
<path d="M4.83187 136.911C4.83881 135.993 4.32699 135.245 3.68869 135.241C3.05039 135.236 2.52731 135.976 2.52038 136.893C2.51344 137.811 3.02527 138.559 3.66357 138.563C4.30187 138.568 4.82493 137.828 4.83187 136.911Z" fill="#E6E6E6"/>
<path d="M2.31135 126.345C2.31829 125.428 1.80647 124.68 1.16817 124.675C0.529873 124.67 0.00680609 125.41 -0.000132272 126.328C-0.00707064 127.245 0.504747 127.993 1.14305 127.998C1.78135 128.003 2.30441 127.263 2.31135 126.345Z" fill="#3F3D56"/>
<path d="M21.9129 144.94C21.9199 144.023 21.408 143.275 20.7697 143.27C20.1314 143.265 19.6084 144.005 19.6014 144.923C19.5945 145.84 20.1063 146.588 20.7446 146.593C21.3829 146.598 21.906 145.858 21.9129 144.94Z" fill="#E6E6E6"/>
<path d="M13.6463 149.068C13.6533 148.15 13.1414 147.402 12.5031 147.397C11.8648 147.393 11.3418 148.132 11.3348 149.05C11.3279 149.968 11.8397 150.715 12.478 150.72C13.1163 150.725 13.6394 149.985 13.6463 149.068Z" fill="#FF6584"/>
<path d="M25.1541 156.696C25.1611 155.778 24.6492 155.031 24.0109 155.026C23.3726 155.021 22.8496 155.761 22.8426 156.678C22.8357 157.596 23.3475 158.344 23.9858 158.349C24.6241 158.353 25.1472 157.613 25.1541 156.696Z" fill="#3F3D56"/>
</g>
<defs>
<clipPath id="clip0_1434_31548">
<rect width="200" height="238.344" fill="white" transform="translate(0 0.828125)"/>
</clipPath>
</defs>
</svg>