<svg width="260" height="193" viewBox="0 0 260 193" fill="none" xmlns="http://www.w3.org/2000/svg">
<g clip-path="url(#clip0_1434_31370)">
<path opacity="0.1" d="M2.79883 92.5566C6.90439 108.423 15.5882 122.139 29.3113 128.788C57.8398 142.606 122.179 135.479 170.198 127.299C195.037 123.068 216.869 111.392 232.729 94.9604L2.79883 92.5566Z" fill="#101010"/>
<path opacity="0.1" d="M254.606 17.8692H228.259C227.008 17.8692 225.983 16.9427 225.983 15.8105C225.983 14.6783 227.008 13.7495 228.259 13.7495H232.816C231.563 13.7495 230.54 12.8229 230.54 11.6884C230.54 10.5539 231.563 9.62971 232.816 9.62971H229.564C228.311 9.62971 227.285 8.70318 227.285 7.56865C227.285 6.43413 228.311 5.50996 229.564 5.50996H243.315C240.264 4.22653 236.697 3.31419 232.587 2.83438C195.088 -1.52173 181.701 1.3595 176.978 4.32108C171.092 8.0585 164.553 10.6518 157.706 11.9649C134.571 16.2832 91.3051 21.4784 52.0908 10.3104C32.6006 4.74889 18.1141 14.1347 9.43262 29.8242H259.182C258.856 25.2649 257.879 21.053 256.088 17.3681C255.663 17.6957 255.142 17.8721 254.606 17.8692Z" fill="#101010"/>
<path opacity="0.1" d="M0.565054 59.438C-0.446928 68.6659 -0.102926 77.9922 1.58613 87.1204L232.906 94.7761C239.274 88.1719 244.684 80.7075 248.979 72.6008L0.565054 59.438ZM92.055 79.1858H87.5004C88.7531 79.1858 89.7789 80.1147 89.7789 81.2469C89.7789 82.379 88.7531 83.3056 87.5004 83.3056H61.1534C59.9031 83.3056 58.8773 82.379 58.8773 81.2469C58.8773 80.1147 59.9031 79.1858 61.1534 79.1858H65.7104C64.4577 79.1858 63.4343 78.2593 63.4343 77.1271C63.4343 75.995 64.4577 75.0661 65.7104 75.0661H62.4557C61.203 75.0661 60.1772 74.1395 60.1772 73.0074C60.1772 71.8752 61.203 70.9463 62.4557 70.9463H88.8027C90.0554 70.9463 91.0789 71.8729 91.0789 73.0074C91.0789 74.1419 90.0554 75.0661 88.8027 75.0661H92.055C93.3077 75.0661 94.3312 75.9926 94.3312 77.1271C94.3312 78.2616 93.3077 79.1858 92.055 79.1858Z" fill="#101010"/>
<path opacity="0.1" d="M259.191 29.9663L6.64609 35.5208C3.57342 42.6659 1.536 50.7447 0.597656 59.1165H254.767C256.421 54.2185 257.648 49.1865 258.435 44.077C259.194 39.1583 259.496 34.4004 259.191 29.9663ZM51.8734 48.1778H47.3188C48.5715 48.1778 49.5973 49.1067 49.5973 50.2388C49.5973 51.371 48.5715 52.2999 47.3188 52.2999H20.9718C19.7215 52.2999 18.6957 51.371 18.6957 50.2388C18.6957 49.1067 19.7215 48.1778 20.9718 48.1778H25.5288C24.2761 48.1778 23.2527 47.2513 23.2527 46.1191C23.2527 44.9869 24.2761 44.0581 25.5288 44.0581H22.2742C21.0215 44.0581 19.9957 43.1315 19.9957 41.9994C19.9957 40.8672 21.0215 39.9383 22.2742 39.9383H48.6211C49.8739 39.9383 50.8973 40.8648 50.8973 41.9994C50.8973 43.1339 49.8739 44.0581 48.6211 44.0581H51.8734C53.1262 44.0581 54.1496 44.9869 54.1496 46.1191C54.1496 47.2513 53.1262 48.1778 51.8734 48.1778Z" fill="#101010"/>
<path opacity="0.1" d="M128.834 185.223C187.182 185.223 234.482 180.872 234.482 175.504C234.482 170.137 187.182 165.785 128.834 165.785C70.4867 165.785 23.1865 170.137 23.1865 175.504C23.1865 180.872 70.4867 185.223 128.834 185.223Z" fill="#101010"/>
<path d="M236.511 95.2272C236.51 95.2107 236.51 95.1941 236.511 95.1776C236.511 95.1516 236.511 95.1279 236.511 95.1043C236.463 94.8336 236.361 94.5754 236.21 94.3456C235.67 93.4799 234.916 92.767 234.022 92.2751C232.462 91.4194 230.318 91.0531 229.694 89.4198C229.503 88.914 229.498 88.3633 229.403 87.8339C229.238 87.009 228.858 86.2421 228.303 85.6103C227.747 84.9784 227.035 84.5038 226.238 84.2341C225.496 83.9859 224.695 83.9174 223.974 83.6101C222.362 82.9247 221.511 81.2347 220.79 79.6724C219.858 77.6555 218.925 75.6377 217.992 73.6192C217.283 73.9761 216.366 73.8083 215.702 73.3616C215.062 72.8851 214.552 72.2552 214.22 71.5298C213.258 69.6626 212.844 67.5472 211.714 65.7697C210.584 63.9923 208.327 62.5883 206.332 63.3612C205.943 63.5558 205.54 63.7225 205.127 63.8599C203.418 64.2594 201.527 62.3071 200.064 63.2549C199.821 63.4107 199.623 63.6275 199.49 63.8836C199.488 63.8679 199.488 63.852 199.49 63.8363C199.299 64.2208 199.193 64.6414 199.178 65.0701C199.178 65.1576 199.178 65.2427 199.178 65.3254C199.178 65.3396 199.178 65.3537 199.178 65.3679C199.178 65.7083 199.199 66.0534 199.204 66.3985C199.209 66.6883 199.187 66.9779 199.138 67.2635V67.2399C199.11 67.4006 199.069 67.5588 199.015 67.7126C198.634 68.7337 197.58 69.4026 197.086 70.3622V70.3149C197.03 70.4193 196.982 70.5275 196.942 70.6387C196.854 70.8903 196.808 71.1547 196.807 71.4211C196.764 73.2245 198.677 74.9216 198.899 76.8574C199.057 78.2282 199.372 78.6679 200.537 79.4431L200.792 79.6133C200.69 79.6133 200.586 79.6275 200.471 79.6298C200.425 79.6307 200.38 79.6354 200.336 79.644C200.13 79.5874 199.915 79.5771 199.705 79.6139C199.494 79.6507 199.295 79.7336 199.121 79.8567C198.228 80.5658 196.115 80.0198 195.176 79.8567C194.238 79.6937 191.023 80.1333 190.574 81.9154C190.125 83.6976 189.355 87.3753 189.355 87.3753C189.355 87.3753 189.355 89.7082 189.069 90.1431C189.058 90.1737 189.058 90.2071 189.069 90.2377C189.069 90.8924 189.092 94.8277 188.459 95.8417C188.303 96.0781 188.315 96.6004 188.43 97.2433C187.764 98.1013 187.138 99.1035 187.249 99.7606C187.452 101.105 190.18 105.334 194.089 103.07C194.089 103.07 196.313 99.0019 193.515 96.8392L193.635 96.3664C194.481 97.4064 195.108 98.1533 195.108 98.1533C195.108 98.1533 195.141 98.2408 195.193 98.3897H195.108C195.473 99.3836 195.694 100.425 195.765 101.481C195.754 101.869 195.684 102.252 195.557 102.618H195.63C195.609 102.699 195.585 102.779 195.557 102.855C195.419 103.254 195.163 103.601 194.822 103.85C192.867 105.235 190.629 115.126 190.629 115.126C190.629 115.126 186.195 131.116 185.308 132.026C184.575 132.773 189.18 134.876 192.635 134.626C193.118 134.597 193.594 134.507 194.053 134.356C194.075 134.593 194.098 134.829 194.122 135.044C194.195 135.753 194.271 136.41 194.318 136.616C194.441 137.131 194.685 142.393 194.685 142.393C194.685 142.393 194.186 145.81 194.306 148.188C194.306 148.351 194.328 148.507 194.342 148.661L193.912 148.727C193.259 150.193 195.947 162.419 196.313 163.448C196.556 164.258 196.692 165.096 196.72 165.941C196.72 165.941 196.483 166.811 196.679 167.286C196.802 167.576 196.881 167.883 196.916 168.196C196.916 168.196 196.755 168.985 196.998 169.501C197.242 170.016 196.958 170.919 196.958 170.919C196.958 170.919 196.878 174.481 196.145 176.419C195.946 176.941 195.888 177.506 195.977 178.057C196.066 178.608 196.3 179.126 196.653 179.558C196.704 179.625 196.76 179.689 196.819 179.749C196.819 179.749 200.861 179.782 201.572 179.749H201.664C201.95 179.709 202.683 176.504 202.031 174.961C201.378 173.417 201.95 171.517 201.95 171.517V168.709C201.95 168.709 202.683 168.033 201.95 166.582C201.217 165.13 201.338 164.691 201.338 164.691C201.338 164.691 202.153 162.356 201.298 161.604C200.442 160.852 201.461 158.002 201.461 158.002L201.749 148.5C201.598 148.451 201.444 148.412 201.288 148.382C201.272 148.226 201.255 148.065 201.239 147.895C201.071 146.174 200.927 143.834 201.3 143.168C201.674 142.501 201.853 136.682 201.912 132.638L205.637 132.78C205.715 134.671 205.798 136.396 205.85 136.616C205.973 137.131 206.219 142.393 206.219 142.393C206.219 142.393 205.718 145.81 205.838 148.188C205.838 148.351 205.86 148.507 205.874 148.661L205.444 148.727C204.791 150.193 207.479 162.419 207.845 163.448C208.088 164.258 208.225 165.096 208.254 165.941C208.254 165.941 208.018 166.811 208.211 167.286C208.334 167.576 208.413 167.883 208.448 168.196C208.448 168.196 208.287 168.985 208.53 169.501C208.774 170.016 208.49 170.919 208.49 170.919C208.49 170.919 208.41 174.481 207.677 176.419C207.481 176.941 207.426 177.506 207.518 178.057C207.61 178.607 207.846 179.123 208.202 179.553C208.253 179.62 208.308 179.684 208.367 179.745C208.367 179.745 212.409 179.778 213.121 179.745H213.213C213.499 179.704 214.231 176.499 213.579 174.956C212.927 173.412 213.499 171.512 213.499 171.512V168.709C213.499 168.709 214.231 168.033 213.499 166.582C212.766 165.13 212.887 164.691 212.887 164.691C212.887 164.691 213.702 162.356 212.846 161.604C211.991 160.852 213.009 158.002 213.009 158.002L213.303 148.5C213.148 148.45 212.99 148.411 212.83 148.382C212.813 148.226 212.797 148.065 212.78 147.895C212.612 146.174 212.468 143.834 212.842 143.168C213.142 142.622 213.314 139.105 213.392 135.671C213.392 135.434 213.392 135.198 213.411 134.962C215.123 134.89 216.827 134.699 218.512 134.39C218.512 134.39 216.519 127.344 217.129 126.197C217.392 125.703 217.013 123.073 216.496 120.239C217.218 120.823 218.115 121.148 219.044 121.161C219.935 122.874 222.646 126.817 224.173 127.424C225.964 128.133 224.619 121.846 223.766 120.936C223.362 120.439 223.023 119.894 222.755 119.312C222.778 119.284 222.804 119.26 222.828 119.234C222.851 119.208 222.87 112.545 222.461 112.666C222.053 112.786 221.566 111.675 221.566 111.675L220.304 100.597L219.774 95.9599C220.216 96.2861 220.741 96.4941 221.192 96.8179C222.421 97.7184 222.823 99.2997 223.362 100.699C223.806 101.85 224.43 102.992 225.454 103.715C226.477 104.438 227.978 104.63 228.999 103.897C229.945 103.209 230.224 101.968 230.432 100.836C232.147 101.439 234.23 99.8267 234.008 98.0659C233.953 97.631 233.793 97.1559 234.019 96.7754C234.473 96.0237 235.91 96.461 236.383 95.7188C236.463 95.5905 236.504 95.442 236.501 95.291C236.508 95.2579 236.511 95.2437 236.511 95.2272ZM213.558 101.321C213.532 101.744 214.113 105.142 214.586 107.832C214.198 106.156 213.421 104.367 211.889 103.141C211.889 103.141 211.889 103.055 211.87 102.904H211.889C211.889 102.904 211.825 102.228 211.816 101.266C211.819 100.413 211.882 99.562 212.005 98.7182V98.697H211.974C211.974 98.626 211.993 98.5528 212.005 98.4819C212.099 97.7698 212.292 97.0744 212.579 96.4161C212.706 96.1581 212.852 95.91 213.017 95.6739C213.269 97.9595 213.581 100.893 213.558 101.321ZM214.829 109.196C215.037 110.357 215.186 111.172 215.186 111.172L216.441 119.79V119.83C215.765 116.192 214.903 112.359 214.903 112.359C214.991 111.305 214.966 110.245 214.829 109.196Z" fill="url(#paint0_linear_1434_31370)"/>
<path d="M199.447 77.3303C199.211 75.1463 196.847 73.2626 197.556 71.185C197.941 70.0528 199.147 69.3603 199.553 68.2352C199.823 67.493 199.702 66.6776 199.705 65.8882C199.707 65.0987 199.891 64.2171 200.548 63.7798C201.966 62.8344 203.791 64.7796 205.446 64.3825C205.846 64.2457 206.235 64.0798 206.611 63.8862C208.542 63.118 210.726 64.5173 211.811 66.2852C212.896 68.0532 213.302 70.1615 214.234 72.0193C214.551 72.7367 215.044 73.3632 215.666 73.8416C216.309 74.286 217.188 74.4538 217.883 74.0993L220.589 80.1264C221.298 81.6793 222.111 83.3622 223.662 84.0453C224.357 84.3502 225.132 84.4187 225.851 84.6669C226.632 84.9423 227.326 85.4181 227.866 86.0465C228.405 86.675 228.77 87.434 228.923 88.2477C229.015 88.7772 229.018 89.3255 229.205 89.829C229.807 91.4551 231.88 91.8191 233.39 92.6653C234.264 93.158 234.997 93.8669 235.518 94.724C235.754 95.1329 235.957 95.6694 235.704 96.0712C235.248 96.8087 233.861 96.3738 233.421 97.123C233.199 97.5012 233.355 97.9739 233.421 98.4088C233.636 100.16 231.62 101.765 229.961 101.165C229.76 102.292 229.488 103.528 228.576 104.211C227.595 104.944 226.141 104.75 225.151 104.032C224.161 103.313 223.56 102.176 223.13 101.03C222.608 99.6355 222.218 98.0614 221.029 97.1656C220.599 96.8441 220.083 96.6361 219.663 96.3123C218.717 95.5891 218.245 94.3955 217.907 93.2397C217.469 91.7979 217.122 90.3159 216.488 88.9545C215.855 87.593 214.853 86.3261 213.48 85.7045C212.191 85.1254 210.707 85.1633 209.376 84.6929C207.086 83.8846 205.391 81.9582 203.113 81.0506C202.384 80.7444 201.694 80.3542 201.056 79.8877C199.91 79.1337 199.598 78.6965 199.447 77.3303Z" fill="#3F3D56"/>
<g opacity="0.1">
<path d="M199.659 67.7718C199.708 67.6793 199.751 67.5838 199.787 67.4858C200.054 66.7436 199.936 65.9282 199.938 65.1387C199.938 64.8754 199.962 64.6127 200.011 64.354C199.793 64.821 199.687 65.3325 199.702 65.8478C199.699 66.4836 199.775 67.1501 199.659 67.7718Z" fill="black"/>
<path d="M228.798 103.469C227.817 104.199 226.364 104.008 225.373 103.287C224.383 102.566 223.78 101.434 223.362 100.283C222.839 98.8884 222.452 97.3142 221.261 96.4184C220.833 96.097 220.315 95.8866 219.897 95.5652C218.951 94.8419 218.479 93.6483 218.138 92.5043C217.701 91.0625 217.356 89.5806 216.72 88.2191C216.084 86.8577 215.087 85.5908 213.711 84.9692C212.425 84.3901 210.941 84.4279 209.61 83.9576C207.318 83.1492 205.623 81.2229 203.347 80.3153C202.618 80.0082 201.927 79.618 201.288 79.1524C200.168 78.3795 199.87 77.9422 199.705 76.5784C199.468 74.5316 197.388 72.7471 197.712 70.8184C197.659 70.9227 197.613 71.03 197.573 71.1398C196.864 73.2198 199.227 75.1036 199.463 77.2852C199.617 78.6489 199.936 79.0862 201.047 79.8591C201.686 80.3247 202.377 80.7149 203.106 81.022C205.382 81.9296 207.077 83.8583 209.369 84.6643C210.7 85.137 212.184 85.0968 213.47 85.6759C214.846 86.2975 215.834 87.5668 216.479 88.9259C217.124 90.2849 217.469 91.7622 217.897 93.211C218.245 94.355 218.701 95.5486 219.656 96.2719C220.083 96.5933 220.601 96.8037 221.019 97.1252C222.201 98.021 222.598 99.5951 223.121 100.99C223.551 102.136 224.154 103.27 225.144 103.989C226.134 104.708 227.588 104.901 228.569 104.171C229.195 103.698 229.514 102.977 229.725 102.205C229.538 102.703 229.217 103.14 228.798 103.469Z" fill="black"/>
<path d="M233.655 96.3806C233.565 96.5501 233.525 96.7422 233.542 96.9337C234.076 96.4066 235.281 96.7162 235.702 96.0379C235.8 95.8702 235.838 95.6745 235.811 95.4824C235.262 96.0024 234.057 95.6928 233.655 96.3806Z" fill="black"/>
<path d="M230.183 100.422C230.138 100.659 230.093 100.912 230.036 101.157C231.483 101.609 233.154 100.448 233.39 98.9829C232.816 100.11 231.398 100.864 230.183 100.422Z" fill="black"/>
</g>
<path d="M202.501 78.4672C202.501 78.4672 203.288 80.0555 200.964 80.0886C198.641 80.1217 202.461 90.4033 202.461 90.4033L206.323 95.3196L211.128 92.7196L211.404 85.5485L211.759 81.216C211.759 81.216 207.268 79.7577 208.095 77.829C208.923 75.9003 202.501 78.4672 202.501 78.4672Z" fill="#FBBEBE"/>
<path d="M216.448 120.388C216.448 120.388 219.285 123.179 222.594 119.475L220.053 116.778H216.838L216.448 120.388Z" fill="#575A89"/>
<path opacity="0.1" d="M216.755 116.778L216.365 120.388C216.365 120.388 219.202 123.179 222.511 119.475" fill="black"/>
<path d="M221.528 117.27C221.528 117.27 222.669 120.265 223.497 121.17C224.324 122.075 225.624 128.339 223.891 127.63C222.159 126.921 218.85 121.643 218.651 120.737C218.453 119.832 218.377 117.27 218.377 117.27H221.528Z" fill="#FBBEBE"/>
<path d="M196.75 132.634L212.033 133.225L210.26 126.762L202.562 126.606L196.75 132.634Z" fill="#575A89"/>
<path opacity="0.1" d="M198.875 132.634L214.16 133.225L212.388 126.762L204.687 126.606L198.875 132.634Z" fill="black"/>
<path d="M201.752 143.301C201.39 143.974 201.53 146.305 201.693 148.028C201.797 149.124 201.91 149.968 201.91 149.968C201.91 149.968 196.197 151.741 195.332 150.205C195.112 149.815 195.004 149.132 194.966 148.33C194.848 145.967 195.332 142.561 195.332 142.561C195.332 142.561 195.096 137.323 194.978 136.81C194.93 136.604 194.857 135.952 194.786 135.245C194.682 134.196 194.583 133.028 194.583 133.028L202.383 128.892C202.383 128.892 202.383 129.667 202.369 130.861C202.326 134.61 202.201 142.473 201.752 143.301Z" fill="#FBBEBE"/>
<path opacity="0.1" d="M201.91 149.968C201.91 149.968 196.197 151.741 195.332 150.204C195.112 149.814 195.004 149.131 194.966 148.33C196.148 148.15 199.745 147.654 201.693 148.027C201.797 149.124 201.91 149.968 201.91 149.968Z" fill="black"/>
<path d="M202.106 179.749H202.016C201.328 179.775 197.419 179.749 197.419 179.749C197.362 179.69 197.308 179.626 197.258 179.56C196.913 179.128 196.685 178.613 196.596 178.067C196.507 177.52 196.56 176.96 196.75 176.44C197.459 174.509 197.537 170.964 197.537 170.964C197.537 170.964 197.814 170.059 197.577 169.546C197.341 169.033 197.497 168.246 197.497 168.246C197.461 167.935 197.381 167.63 197.261 167.341C197.064 166.868 197.301 166 197.301 166C197.274 165.16 197.141 164.326 196.906 163.519C196.552 162.495 193.952 150.323 194.583 148.864C194.583 148.864 200.097 147.919 202.186 148.628L201.91 158.082C201.91 158.082 200.924 160.919 201.751 161.668C202.579 162.417 201.792 164.741 201.792 164.741C201.792 164.741 201.673 165.173 202.383 166.631C203.092 168.09 202.383 168.759 202.383 168.759V171.555C202.383 171.555 201.832 173.446 202.461 174.982C203.089 176.518 202.383 179.7 202.106 179.749Z" fill="#3F3D56"/>
<path d="M212.929 143.3C212.567 143.974 212.706 146.305 212.869 148.028C212.973 149.124 213.087 149.968 213.087 149.968C213.087 149.968 207.374 151.741 206.509 150.204C206.289 149.814 206.18 149.131 206.143 148.33C206.024 145.967 206.509 142.561 206.509 142.561C206.509 142.561 206.273 137.323 206.154 136.81C206.091 136.533 205.98 133.896 205.892 131.53C205.819 129.511 205.76 127.687 205.76 127.687L213.56 128.892C213.56 128.892 213.56 132.322 213.463 135.846C213.378 139.263 213.219 142.766 212.929 143.3Z" fill="#FBBEBE"/>
<path opacity="0.1" d="M213.088 149.968C213.088 149.968 207.375 151.741 206.51 150.204C206.29 149.814 206.181 149.131 206.144 148.33C207.325 148.15 210.923 147.654 212.87 148.027C212.974 149.124 213.088 149.968 213.088 149.968Z" fill="black"/>
<path d="M213.284 179.75H213.194C212.506 179.776 208.597 179.75 208.597 179.75C208.54 179.69 208.486 179.627 208.436 179.56C208.091 179.128 207.863 178.614 207.774 178.067C207.685 177.521 207.738 176.96 207.928 176.441C208.637 174.5 208.708 170.955 208.708 170.955C208.708 170.955 208.985 170.049 208.748 169.536C208.512 169.024 208.668 168.237 208.668 168.237C208.632 167.925 208.552 167.621 208.432 167.331C208.235 166.859 208.472 165.991 208.472 165.991C208.445 165.151 208.312 164.317 208.077 163.509C207.722 162.486 205.123 150.313 205.754 148.855C205.754 148.855 211.268 147.91 213.357 148.619L213.081 158.073C213.081 158.073 212.095 160.909 212.922 161.659C213.75 162.408 212.963 164.731 212.963 164.731C212.963 164.731 212.844 165.164 213.553 166.622C214.263 168.081 213.553 168.749 213.553 168.749V171.546C213.553 171.546 213.003 173.436 213.631 174.973C214.26 176.509 213.561 179.7 213.284 179.75Z" fill="#3F3D56"/>
<path opacity="0.1" d="M205.574 80.3247C208.642 80.3247 211.128 77.8379 211.128 74.7703C211.128 71.7026 208.642 69.2158 205.574 69.2158C202.506 69.2158 200.02 71.7026 200.02 74.7703C200.02 77.8379 202.506 80.3247 205.574 80.3247Z" fill="black"/>
<path d="M205.574 80.0884C208.642 80.0884 211.128 77.6016 211.128 74.5339C211.128 71.4663 208.642 68.9795 205.574 68.9795C202.506 68.9795 200.02 71.4663 200.02 74.5339C200.02 77.6016 202.506 80.0884 205.574 80.0884Z" fill="#FBBEBE"/>
<path opacity="0.1" d="M194.583 133.028L202.383 128.892C202.383 128.892 202.383 129.667 202.369 130.861C201.229 131.542 199.511 132.565 197.859 133.532C196.961 134.059 196.084 134.569 195.332 134.997C195.158 135.092 194.975 135.171 194.786 135.234C194.682 134.196 194.583 133.028 194.583 133.028Z" fill="black"/>
<path opacity="0.1" d="M213.56 128.883C213.56 128.883 213.56 132.312 213.463 135.836H213.435C212.852 135.857 212.268 135.839 211.688 135.782C210.669 135.673 209.854 135.404 209.561 134.87C208.967 133.83 207.306 132.506 205.902 131.52C205.829 129.502 205.77 127.677 205.77 127.677L213.56 128.883Z" fill="black"/>
<path d="M212.109 98.8437C211.911 100.382 211.873 101.937 211.995 103.483C215.578 106.438 214.91 112.661 214.91 112.661C214.91 112.661 217.668 125.269 217.077 126.41C216.486 127.552 218.415 134.565 218.415 134.565C216.771 134.876 215.106 135.067 213.435 135.137C212.852 135.157 212.268 135.139 211.688 135.082C210.669 134.974 209.854 134.704 209.561 134.17C208.459 132.241 203.692 129.365 203.692 129.365C203.692 129.365 200.671 131.175 197.859 132.823C196.96 133.35 196.084 133.86 195.332 134.288C194.722 134.612 194.048 134.796 193.358 134.829C190.014 135.078 185.558 132.983 186.268 132.241C187.135 131.334 191.43 115.42 191.43 115.42C191.43 115.42 193.595 105.57 195.486 104.192C195.817 103.942 196.064 103.597 196.195 103.202C196.842 101.403 195.76 98.5199 195.76 98.5199C195.76 98.5199 189.655 90.9965 189.929 90.5616C190.203 90.1267 190.205 87.8057 190.205 87.8057C190.205 87.8057 190.955 84.1421 191.387 82.3694C191.82 80.5967 194.932 80.1618 195.838 80.3202C196.743 80.4786 198.79 81.0293 199.655 80.3202C200.52 79.6111 201.981 80.5967 201.981 80.5967L205.569 81.5847L208.795 79.6938C208.795 79.6938 212.028 79.8593 212.305 80.2918C212.581 80.7244 216.836 81.554 216.836 81.554C219.001 83.01 218.923 89.9448 218.923 89.9448C218.923 89.9448 213.723 94.4734 212.659 96.7992C212.384 97.4525 212.199 98.1403 212.109 98.8437Z" fill="#575A89"/>
<path d="M217.746 88.9849L218.928 89.9303L220.15 100.921L221.37 111.952C221.37 111.952 221.842 113.056 222.237 112.938C222.632 112.819 222.592 119.475 222.592 119.475C222.592 119.475 218.068 116.693 216.446 120.388L215.184 111.479C215.184 111.479 213.567 102.379 213.608 101.67C213.648 100.961 212.78 93.2795 212.78 93.2795L217.746 88.9849Z" fill="#575A89"/>
<path d="M190.801 89.498L189.933 90.5617C189.933 90.5617 190.014 95.1305 189.343 96.2343C188.671 97.3381 191.196 103.798 192.141 103.403C193.086 103.008 195.214 92.9253 195.214 92.8071C195.214 92.6889 190.801 89.498 190.801 89.498Z" fill="#575A89"/>
<path d="M190.723 95.998C190.723 95.998 187.965 98.7942 188.161 100.134C188.358 101.474 190.998 105.684 194.779 103.422C194.779 103.422 198.287 96.8253 190.723 95.998Z" fill="#575A89"/>
<path opacity="0.1" d="M202.017 179.757C201.329 179.783 197.42 179.757 197.42 179.757C197.362 179.697 197.309 179.634 197.259 179.567C198.259 179.227 200.419 178.717 202.017 179.757Z" fill="black"/>
<path opacity="0.1" d="M213.198 179.757C212.511 179.783 208.601 179.757 208.601 179.757C208.544 179.697 208.49 179.634 208.44 179.567C209.436 179.227 211.596 178.717 213.198 179.757Z" fill="black"/>
<path opacity="0.1" d="M198.138 110.473C197.535 116.254 197.734 127.727 197.859 132.823C196.961 133.35 196.084 133.86 195.332 134.288C194.722 134.612 194.048 134.797 193.359 134.829C193.108 133.288 196.578 117.459 198.138 110.473Z" fill="black"/>
<path opacity="0.1" d="M198.875 107.192C198.859 107.275 198.573 108.532 198.138 110.473C198.308 108.816 198.544 107.627 198.875 107.192Z" fill="black"/>
<path opacity="0.1" d="M208.472 106.568C208.472 106.568 211.821 127.604 201.903 130.204C201.901 130.194 208.765 129.152 208.472 106.568Z" fill="black"/>
<path opacity="0.1" d="M213.435 135.137C212.852 135.157 212.269 135.139 211.688 135.082L209.013 106.32C210.719 107.435 212.761 127.847 213.435 135.137Z" fill="black"/>
<path opacity="0.1" d="M201.437 71.2675C201.615 71.2533 201.793 71.2718 201.964 71.3218C202.215 71.4468 202.441 71.6167 202.631 71.8229C202.939 72.0805 203.307 72.2557 203.702 72.3322C204.096 72.4087 204.503 72.3839 204.886 72.2602C205.155 72.1397 205.441 72.06 205.734 72.0238C206.185 72.0238 206.575 72.3547 206.809 72.7329C207.043 73.1111 207.164 73.5601 207.365 73.9643C207.566 74.3685 207.887 74.7514 208.329 74.8507C208.541 74.8589 208.75 74.907 208.944 74.9925C209.063 75.0891 209.154 75.2155 209.209 75.3588C209.577 76.1554 209.87 77.0961 210.657 77.4861C210.947 77.6203 211.262 77.6889 211.582 77.687C211.906 77.7108 212.231 77.6523 212.527 77.5168C212.818 77.3543 213.058 77.1147 213.222 76.8243C213.714 76.0112 213.77 75.0043 213.654 74.0612C213.51 72.8715 213.087 71.7328 212.418 70.738C211.714 69.7319 210.756 68.9306 209.641 68.4161C208.526 67.9016 207.294 67.6923 206.072 67.8095C205.645 67.8575 205.223 67.9365 204.808 68.0459C203.304 68.4477 201.829 69.1993 200.917 70.4591C200.696 70.7736 200.454 71.0721 200.191 71.3525C200.605 71.3124 201.021 71.2769 201.437 71.2675Z" fill="black"/>
<path d="M201.437 71.0311C201.615 71.017 201.793 71.0354 201.964 71.0855C202.215 71.2105 202.441 71.3803 202.631 71.5866C202.939 71.8442 203.307 72.0194 203.702 72.0959C204.096 72.1723 204.503 72.1476 204.886 72.0238C205.155 71.9034 205.441 71.8237 205.734 71.7875C206.185 71.7875 206.575 72.1184 206.809 72.4966C207.043 72.8747 207.164 73.3238 207.365 73.728C207.566 74.1322 207.887 74.5151 208.329 74.6143C208.541 74.6226 208.75 74.6707 208.944 74.7562C209.063 74.8528 209.154 74.9792 209.209 75.1225C209.577 75.919 209.87 76.8597 210.657 77.2497C210.947 77.3839 211.262 77.4525 211.582 77.4506C211.906 77.4745 212.231 77.4159 212.527 77.2805C212.818 77.118 213.058 76.8783 213.222 76.5879C213.714 75.7749 213.77 74.768 213.654 73.8249C213.51 72.6352 213.087 71.4965 212.418 70.5017C211.714 69.4956 210.756 68.6943 209.641 68.1798C208.526 67.6653 207.294 67.456 206.072 67.5732C205.645 67.6212 205.223 67.7002 204.808 67.8095C203.304 68.2114 201.829 68.963 200.917 70.2228C200.696 70.5372 200.454 70.8358 200.191 71.1162C200.605 71.076 201.021 71.0406 201.437 71.0311Z" fill="#3F3D56"/>
<path opacity="0.1" d="M195.41 84.2578C195.41 84.2578 195.687 86.4654 194.741 87.0161C193.796 87.5668 195.41 84.2578 195.41 84.2578Z" fill="black"/>
<path opacity="0.1" d="M215.461 101.356C215.461 101.356 217.706 98.0472 218.023 98.9926C218.34 99.9381 215.461 101.356 215.461 101.356Z" fill="black"/>
<path opacity="0.1" d="M215.619 102.457C215.619 102.457 217.834 99.7394 218.047 100.803C218.259 101.867 215.619 102.457 215.619 102.457Z" fill="black"/>
<path opacity="0.1" d="M209.114 99.2217C208.311 99.2331 207.527 98.9751 206.888 98.489H206.694C206.031 99.0949 205.16 99.4224 204.262 99.4037C203.795 99.4145 203.331 99.3305 202.897 99.1566C202.464 98.9827 202.07 98.7226 201.74 98.3921H201.482C200.802 98.9463 199.947 99.2416 199.069 99.2256C198.192 99.2096 197.349 98.8833 196.689 98.3046L195.765 98.2881C195.765 98.2881 196.847 101.172 196.2 102.97L211.995 103.252C211.873 101.705 211.911 100.15 212.109 98.6119V98.5906L211.241 98.5741C210.617 99.0068 209.874 99.2333 209.114 99.2217Z" fill="black"/>
<path opacity="0.1" d="M209.114 99.6944C208.311 99.7057 207.527 99.4478 206.888 98.9616H206.694C206.031 99.5675 205.16 99.895 204.262 99.8764C203.795 99.8872 203.331 99.8031 202.897 99.6292C202.464 99.4553 202.07 99.1953 201.74 98.8647H201.482C200.802 99.419 199.947 99.7143 199.069 99.6983C198.192 99.6822 197.349 99.356 196.689 98.7773L195.765 98.7607C195.765 98.7607 196.847 101.644 196.2 103.443L211.995 103.724C211.873 102.178 211.911 100.623 212.109 99.0846V99.0633L211.241 99.0467C210.617 99.4795 209.874 99.706 209.114 99.6944Z" fill="black"/>
<path d="M209.114 99.458C208.311 99.4694 207.527 99.2114 206.888 98.7253H206.694C206.031 99.3312 205.16 99.6587 204.262 99.64C203.795 99.6509 203.331 99.5668 202.897 99.3929C202.464 99.219 202.07 98.9589 201.74 98.6284H201.482C200.802 99.1826 199.947 99.4779 199.069 99.4619C198.192 99.4459 197.349 99.1196 196.689 98.541L195.765 98.5244C195.765 98.5244 196.847 101.408 196.2 103.207L211.995 103.488C211.873 101.942 211.911 100.387 212.109 98.8482V98.827L211.241 98.8104C210.617 99.2432 209.874 99.4697 209.114 99.458Z" fill="#3F3D56"/>
<path opacity="0.1" d="M208.412 83.6978C208.412 83.6978 211.738 83.9105 211.759 84.3832C211.78 84.8559 208.412 83.6978 208.412 83.6978Z" fill="black"/>
<path opacity="0.1" d="M200.333 81.6816C200.333 81.6816 197.008 81.8944 196.986 82.3671C196.965 82.8398 200.333 81.6816 200.333 81.6816Z" fill="black"/>
<path opacity="0.1" d="M213.043 91.346C213.01 91.3224 212.976 91.3035 212.943 91.2822C213.794 92.048 213.652 93.7214 212.608 95.1018C211.563 96.4821 209.977 97.0565 209.013 96.4372C209.043 96.4632 209.069 96.4916 209.103 96.5176C210.048 97.2408 211.702 96.6736 212.794 95.246C213.886 93.8184 213.993 92.0717 213.043 91.346Z" fill="black"/>
<path opacity="0.1" d="M194.775 94.9247C193.933 93.4073 194.042 91.7315 194.994 91.0957C194.959 91.1122 194.921 91.1264 194.886 91.1453C193.841 91.7268 193.704 93.4687 194.569 95.0382C195.434 96.6076 196.994 97.4018 198.039 96.8298C198.073 96.8099 198.106 96.7878 198.138 96.7636C197.096 97.2363 195.616 96.4421 194.775 94.9247Z" fill="black"/>
<path opacity="0.1" d="M195.899 82.1282L195.594 82.6009L194.816 82.1873L195.225 81.5586C195.496 81.6864 195.728 81.8828 195.899 82.1282Z" fill="black"/>
<path d="M190.959 99.621C190.959 99.621 191.652 96.3639 190.723 95.3287C189.794 94.2934 190.092 88.8666 191.51 88.9848C192.928 89.103 195.055 93.3953 194.701 94.3029C194.346 95.2105 193.006 99.8573 193.006 99.8573L190.959 99.621Z" fill="#FBBEBE"/>
<path opacity="0.1" d="M213.199 76.1223C213.035 76.4127 212.795 76.6523 212.504 76.8148C212.208 76.9503 211.883 77.0088 211.559 76.985C211.24 76.9869 210.924 76.9183 210.634 76.7841C209.847 76.3917 209.554 75.451 209.186 74.6569C209.139 74.5136 209.056 74.3849 208.945 74.2834C208.753 74.1964 208.547 74.1459 208.337 74.1345C207.895 74.0352 207.576 73.65 207.373 73.2482C207.169 72.8463 207.049 72.402 206.817 72.0167C206.586 71.6315 206.193 71.2935 205.742 71.3076C205.448 71.3466 205.162 71.4303 204.893 71.5558C204.511 71.6785 204.104 71.7026 203.709 71.6257C203.315 71.5489 202.947 71.3736 202.638 71.1162C202.449 70.9099 202.223 70.7401 201.972 70.6151C201.801 70.5651 201.622 70.5466 201.445 70.5608C201.173 70.5608 200.904 70.5868 200.632 70.608C200.497 70.7846 200.353 70.9534 200.199 71.1138C200.613 71.0784 201.029 71.0429 201.445 71.0335C201.622 71.0194 201.801 71.0378 201.972 71.0878C202.223 71.2129 202.449 71.3827 202.638 71.5889C202.947 71.8463 203.315 72.0216 203.709 72.0985C204.104 72.1753 204.511 72.1513 204.893 72.0285C205.162 71.903 205.448 71.8193 205.742 71.7804C206.193 71.7804 206.583 72.1113 206.817 72.4894C207.051 72.8676 207.172 73.3167 207.373 73.7209C207.574 74.125 207.895 74.508 208.337 74.6072C208.547 74.6186 208.753 74.6691 208.945 74.7561C209.063 74.8528 209.155 74.9792 209.209 75.1225C209.578 75.919 209.871 76.8597 210.658 77.2497C210.948 77.3839 211.263 77.4525 211.582 77.4506C211.907 77.4744 212.232 77.4159 212.528 77.2804C212.819 77.118 213.059 76.8783 213.223 76.5879C213.59 75.9198 213.754 75.1592 213.695 74.3992C213.677 75.0062 213.507 75.5988 213.199 76.1223Z" fill="black"/>
<path d="M192.006 102.204C193.181 102.204 194.133 101.559 194.133 100.763C194.133 99.9663 193.181 99.3208 192.006 99.3208C190.831 99.3208 189.879 99.9663 189.879 100.763C189.879 101.559 190.831 102.204 192.006 102.204Z" fill="#575A89"/>
<path d="M122.668 181.019C162.939 181.019 195.585 148.373 195.585 108.102C195.585 67.831 162.939 35.1851 122.668 35.1851C82.397 35.1851 49.751 67.831 49.751 108.102C49.751 148.373 82.397 181.019 122.668 181.019Z" fill="#35383F"/>
<path d="M160.927 144.744C160.927 156.255 142.832 145.728 123.431 145.728C104.031 145.728 84.4082 155.82 84.4082 144.309C84.4082 137.746 90.6623 128.618 99.6345 121.988C106.394 116.991 114.695 113.413 123.034 113.413C131.609 113.413 140.009 117.287 146.71 122.605C155.167 129.31 160.927 138.32 160.927 144.744Z" fill="#9E9E9E"/>
<path d="M146.708 122.6C136.396 121.047 117.745 119.154 99.6348 121.983C106.395 116.987 114.696 113.408 123.034 113.408C131.607 113.408 140.007 117.282 146.708 122.6Z" fill="#F6F8FB"/>
<path opacity="0.05" d="M84.4084 56.6299C84.4084 56.6299 62.4435 70.672 62.6232 92.6369C62.8028 114.602 84.4084 56.6299 84.4084 56.6299Z" fill="black"/>
<path d="M195.556 16.9711C195.556 16.9711 175.655 15.7727 178.002 29.7179C178.002 29.7179 177.529 32.1808 179.77 33.3012C179.77 33.3012 179.805 32.2683 181.81 32.6181C182.524 32.7376 183.25 32.7725 183.972 32.7221C184.949 32.6557 185.877 32.2723 186.615 31.6301C186.615 31.6301 192.21 29.3209 194.386 20.1761C194.386 20.1761 195.996 18.1812 195.932 17.6707L192.574 19.103C192.574 19.103 193.72 21.5257 192.81 23.5395C192.81 23.5395 192.701 19.1929 192.056 19.285C191.926 19.3063 190.312 20.1241 190.312 20.1241C190.312 20.1241 192.285 24.3455 190.784 27.4111C190.784 27.4111 191.349 22.2112 189.683 20.429L187.319 21.8094C187.319 21.8094 189.626 26.1678 188.061 29.725C188.061 29.725 188.463 24.2699 186.823 22.145L184.679 23.8161C184.679 23.8161 186.847 28.1131 185.525 31.0628C185.525 31.0628 185.353 24.7119 184.216 24.232C184.216 24.232 182.342 25.8866 182.056 26.5649C182.056 26.5649 183.54 29.6825 182.62 31.3276C182.62 31.3276 182.056 27.0967 181.592 27.0731C181.592 27.0731 179.725 29.8763 179.529 31.8003C179.529 31.8003 179.612 28.9403 181.138 26.806C181.138 26.806 179.333 27.1156 178.281 28.288C178.281 28.288 178.572 26.3049 181.59 26.1324C181.59 26.1324 183.133 24.0051 183.547 23.8775C183.547 23.8775 180.533 23.6246 178.706 24.4353C178.706 24.4353 180.314 22.5657 184.098 23.4142L186.225 21.6888C186.225 21.6888 182.259 21.1452 180.576 21.7455C180.576 21.7455 182.512 20.091 186.795 21.2965L189.099 19.9185C189.099 19.9185 185.717 19.1905 183.701 19.4458C183.701 19.4458 185.828 18.2994 189.773 19.5427L191.427 18.8029C191.427 18.8029 188.948 18.316 188.222 18.2403C187.497 18.1647 187.459 17.9614 187.459 17.9614C189.033 17.7054 190.648 17.8928 192.122 18.5027C192.122 18.5027 195.615 17.1909 195.556 16.9711Z" fill="#101010"/>
<path d="M175.144 10.7715C175.144 10.7715 166.163 10.2279 167.212 16.5293C167.212 16.5293 167.002 17.6425 168.011 18.1483C168.011 18.1483 168.025 17.6756 168.933 17.841C169.255 17.8941 169.583 17.91 169.909 17.8883C170.351 17.8568 170.77 17.6835 171.105 17.3943C171.105 17.3943 173.632 16.3496 174.615 12.2181C174.615 12.2181 175.343 11.3175 175.324 11.0859L173.807 11.7335C173.807 11.7335 174.327 12.8279 173.918 13.7378C173.918 13.7378 173.868 11.7737 173.577 11.821C173.518 11.821 172.788 12.1991 172.788 12.1991C172.788 12.1991 173.681 14.1066 173.008 15.4916C173.008 15.4916 173.263 13.1422 172.511 12.3362L171.443 12.9602C171.443 12.9602 172.485 14.9315 171.779 16.5387C171.779 16.5387 171.958 14.0735 171.219 13.1139L170.249 13.8678C170.249 13.8678 171.228 15.8084 170.632 17.1414C170.632 17.1414 170.554 14.272 170.039 14.0546C170.039 14.0546 169.193 14.8015 169.063 15.1087C169.063 15.1087 169.734 16.5269 169.318 17.262C169.318 17.262 169.063 15.3498 168.845 15.3427C168.845 15.3427 168.002 16.6072 167.914 17.47C167.955 16.6671 168.205 15.8889 168.64 15.2127C168.154 15.3047 167.705 15.5373 167.349 15.8816C167.349 15.8816 167.479 14.9858 168.848 14.9078C168.848 14.9078 169.545 13.9482 169.732 13.8891C169.732 13.8891 168.37 13.7757 167.546 14.142C167.546 14.142 168.271 13.2959 169.982 13.6693L170.928 12.8917C170.928 12.8917 169.136 12.6553 168.375 12.9153C168.375 12.9153 169.25 12.1684 171.185 12.7144L172.225 12.0904C172.225 12.0904 170.699 11.7619 169.786 11.8801C169.786 11.8801 170.748 11.3624 172.53 11.925L173.275 11.5893C173.275 11.5893 172.155 11.3695 171.828 11.3364C171.502 11.3033 171.481 11.2112 171.481 11.2112C172.19 11.0931 172.919 11.175 173.584 11.4475C173.584 11.4475 175.17 10.8708 175.144 10.7715Z" fill="#101010"/>
<path opacity="0.1" d="M253.635 173.153C257.15 173.153 260 172.671 260 172.077C260 171.483 257.15 171.002 253.635 171.002C250.119 171.002 247.27 171.483 247.27 172.077C247.27 172.671 250.119 173.153 253.635 173.153Z" fill="#101010"/>
<path opacity="0.1" d="M11.0546 191.042C14.57 191.042 17.4198 190.561 17.4198 189.967C17.4198 189.373 14.57 188.892 11.0546 188.892C7.53923 188.892 4.68945 189.373 4.68945 189.967C4.68945 190.561 7.53923 191.042 11.0546 191.042Z" fill="#101010"/>
<path opacity="0.1" d="M48.0048 192.392C51.5202 192.392 54.37 191.911 54.37 191.317C54.37 190.723 51.5202 190.241 48.0048 190.241C44.4894 190.241 41.6396 190.723 41.6396 191.317C41.6396 191.911 44.4894 192.392 48.0048 192.392Z" fill="#101010"/>
<path d="M239.704 185.209C244.953 185.209 249.208 184.49 249.208 183.602C249.208 182.714 244.953 181.995 239.704 181.995C234.455 181.995 230.2 182.714 230.2 183.602C230.2 184.49 234.455 185.209 239.704 185.209Z" fill="#101010"/>
<path d="M243.633 180.976C244.066 180.622 244.383 180.145 244.54 179.608C244.656 179.067 244.424 178.414 243.907 178.216C243.325 177.993 242.704 178.398 242.233 178.804C241.763 179.211 241.222 179.674 240.605 179.589C240.922 179.302 241.159 178.937 241.294 178.531C241.428 178.124 241.454 177.69 241.371 177.27C241.344 177.096 241.27 176.933 241.158 176.798C240.834 176.452 240.25 176.599 239.863 176.871C238.634 177.736 238.291 179.405 238.284 180.908C238.161 180.367 238.265 179.802 238.263 179.253C238.26 178.705 238.107 178.071 237.639 177.781C237.348 177.626 237.022 177.549 236.693 177.559C236.14 177.537 235.525 177.592 235.147 177.996C234.675 178.499 234.8 179.341 235.209 179.887C235.618 180.433 236.237 180.787 236.807 181.168C237.265 181.44 237.656 181.813 237.951 182.257C237.985 182.32 238.013 182.386 238.036 182.454H241.498C242.273 182.06 242.991 181.563 243.633 180.976Z" fill="#101010"/>
<path d="M14.0252 161.157C14.0252 161.157 15.3228 162.854 13.4248 165.412C11.5269 167.969 9.96217 170.139 10.5885 171.737C10.5885 171.737 13.4508 166.976 15.7884 166.908C18.126 166.839 16.5873 164.02 14.0252 161.157Z" fill="#101010"/>
<path opacity="0.1" d="M14.0259 161.157C14.1386 161.321 14.2277 161.5 14.2906 161.689C16.5644 164.36 17.7745 166.853 15.5906 166.915C13.5532 166.974 11.0997 170.614 10.5254 171.533C10.5455 171.605 10.5691 171.675 10.5963 171.744C10.5963 171.744 13.4586 166.983 15.7962 166.915C18.1338 166.846 16.588 164.02 14.0259 161.157Z" fill="black"/>
<path d="M16.4388 163.32C16.4388 163.918 16.3703 164.403 16.2876 164.403C16.2049 164.403 16.1387 163.93 16.1387 163.32C16.1387 162.71 16.2214 163.004 16.3065 163.004C16.3916 163.004 16.4388 162.722 16.4388 163.32Z" fill="#FFD037"/>
<path d="M17.2563 164.034C16.7316 164.32 16.2754 164.492 16.2352 164.419C16.1951 164.346 16.5898 164.057 17.1145 163.771C17.6392 163.485 17.4312 163.693 17.4714 163.771C17.5116 163.849 17.7905 163.748 17.2563 164.034Z" fill="#FFD037"/>
<path d="M7.16689 161.157C7.16689 161.157 5.86928 162.854 7.76488 165.412C9.66048 167.969 11.2275 170.139 10.6012 171.737C10.6012 171.737 7.73652 166.976 5.40129 166.908C3.06606 166.839 4.60239 164.02 7.16689 161.157Z" fill="#101010"/>
<path opacity="0.1" d="M7.16641 161.157C7.05269 161.321 6.9635 161.5 6.90169 161.689C4.62791 164.36 3.41539 166.853 5.60171 166.915C7.63677 166.974 10.0925 170.614 10.6645 171.533C10.6452 171.605 10.6224 171.675 10.596 171.744C10.596 171.744 7.73131 166.983 5.39608 166.915C3.06085 166.846 4.60191 164.02 7.16641 161.157Z" fill="black"/>
<path d="M4.75293 163.32C4.75293 163.918 4.81911 164.403 4.90184 164.403C4.98456 164.403 5.05074 163.93 5.05074 163.32C5.05074 162.71 4.96802 163.004 4.88529 163.004C4.80257 163.004 4.75293 162.722 4.75293 163.32Z" fill="#FFD037"/>
<path d="M3.92339 164.034C4.44811 164.32 4.90665 164.492 4.94683 164.419C4.98701 164.346 4.59229 164.057 4.06757 163.771C3.54285 163.485 3.74849 163.693 3.71067 163.771C3.67285 163.849 3.39867 163.748 3.92339 164.034Z" fill="#FFD037"/>
<path d="M5.16699 171.521C5.16699 171.521 8.79747 171.41 9.89418 170.63C10.9909 169.85 15.4794 168.922 15.7512 170.158C16.023 171.394 21.2063 176.374 17.1079 176.407C13.0094 176.44 7.58495 175.766 6.49297 175.102C5.40099 174.438 5.16699 171.521 5.16699 171.521Z" fill="#A8A8A8"/>
<path opacity="0.2" d="M17.1764 175.984C13.0779 176.017 7.65349 175.344 6.56151 174.68C5.72953 174.174 5.39862 172.356 5.28754 171.517H5.16699C5.16699 171.517 5.40335 174.446 6.48824 175.11C7.57313 175.774 13.0047 176.448 17.1031 176.414C18.2849 176.414 18.6938 175.982 18.6726 175.36C18.5071 175.741 18.058 175.977 17.1764 175.984Z" fill="black"/>
<path d="M96.7444 98.541C98.1318 98.463 104.662 97.9714 108.811 95.6054C109.477 95.2135 110.229 94.9919 111.002 94.9602C112.32 94.9224 113.838 95.4731 112.866 98.5552C111.292 103.597 102.152 109.269 96.4797 108.955C91.0245 108.652 84.553 106.454 80.2796 98.7254C79.8702 97.9818 79.6685 97.1417 79.6958 96.2933C79.7454 94.7333 80.3127 92.7786 83.2412 94.9578C87.1978 97.9005 94.7046 98.4583 96.2102 98.541C96.3882 98.5506 96.5665 98.5506 96.7444 98.541Z" fill="#9E9E9E"/>
<path d="M149.216 98.541C150.604 98.463 157.134 97.9714 161.282 95.6054C161.948 95.2135 162.701 94.9919 163.473 94.9602C164.792 94.9224 166.31 95.4731 165.338 98.5552C163.764 103.597 154.624 109.269 148.951 108.955C143.496 108.652 137.025 106.454 132.751 98.7254C132.342 97.9818 132.14 97.1417 132.167 96.2933C132.217 94.7333 132.784 92.7786 135.713 94.9578C139.67 97.9005 147.176 98.4583 148.682 98.541C148.86 98.5506 149.038 98.5506 149.216 98.541Z" fill="#9E9E9E"/>
</g>
<defs>
<linearGradient id="paint0_linear_1434_31370" x1="210.866" y1="179.766" x2="210.866" y2="62.9949" gradientUnits="userSpaceOnUse">
<stop stop-color="#808080" stop-opacity="0.25"/>
<stop offset="0.54" stop-color="#808080" stop-opacity="0.12"/>
<stop offset="1" stop-color="#808080" stop-opacity="0.1"/>
</linearGradient>
<clipPath id="clip0_1434_31370">
<rect width="260" height="191.784" fill="white" transform="translate(0 0.60791)"/>
</clipPath>
</defs>
</svg>
