<svg width="14" height="14" viewBox="0 0 14 14" fill="none" xmlns="http://www.w3.org/2000/svg">
<path fill-rule="evenodd" clip-rule="evenodd" d="M13.6673 4.27967V9.72634C13.6673 12.0797 12.1533 13.6663 9.89398 13.6663H4.11398C1.85398 13.6663 0.333984 12.0797 0.333984 9.72634V4.27967C0.333984 1.91967 1.85398 0.333008 4.11398 0.333008H9.89398C12.1533 0.333008 13.6673 1.91967 13.6673 4.27967ZM6.50065 5.48634V9.71968C6.50065 9.99967 6.72732 10.2197 7.00065 10.2197C7.28065 10.2197 7.50065 9.99967 7.50065 9.71968V5.48634L9.14732 7.13967C9.24065 7.23301 9.37398 7.28634 9.50065 7.28634C9.62665 7.28634 9.75398 7.23301 9.85398 7.13967C10.0473 6.94634 10.0473 6.62634 9.85398 6.43301L7.35398 3.91967C7.16732 3.73301 6.83398 3.73301 6.64732 3.91967L4.14732 6.43301C3.95398 6.62634 3.95398 6.94634 4.14732 7.13967C4.34732 7.33301 4.66065 7.33301 4.86065 7.13967L6.50065 5.48634Z" fill="#F75555"/>
</svg>