<svg width="250" height="250" viewBox="0 0 300 301" fill="none" xmlns="http://www.w3.org/2000/svg">
<g clip-path="url(#clip0_1242_22461)">
<path d="M300 0.5H0V300.5H300V0.5Z" fill="white"/>
<path d="M29.25 19.25H18.75V29.75H29.25V19.25Z" fill="black"/>
<path d="M39.75 19.25H29.25V29.75H39.75V19.25Z" fill="black"/>
<path d="M50.25 19.25H39.75V29.75H50.25V19.25Z" fill="black"/>
<path d="M60.75 19.25H50.25V29.75H60.75V19.25Z" fill="black"/>
<path d="M71.25 19.25H60.75V29.75H71.25V19.25Z" fill="black"/>
<path d="M81.75 19.25H71.25V29.75H81.75V19.25Z" fill="black"/>
<path d="M92.25 19.25H81.75V29.75H92.25V19.25Z" fill="black"/>
<path d="M113.25 19.25H102.75V29.75H113.25V19.25Z" fill="black"/>
<path d="M144.75 19.25H134.25V29.75H144.75V19.25Z" fill="black"/>
<path d="M176.25 19.25H165.75V29.75H176.25V19.25Z" fill="black"/>
<path d="M197.25 19.25H186.75V29.75H197.25V19.25Z" fill="black"/>
<path d="M218.25 19.25H207.75V29.75H218.25V19.25Z" fill="black"/>
<path d="M228.75 19.25H218.25V29.75H228.75V19.25Z" fill="black"/>
<path d="M239.25 19.25H228.75V29.75H239.25V19.25Z" fill="black"/>
<path d="M249.75 19.25H239.25V29.75H249.75V19.25Z" fill="black"/>
<path d="M260.25 19.25H249.75V29.75H260.25V19.25Z" fill="black"/>
<path d="M270.75 19.25H260.25V29.75H270.75V19.25Z" fill="black"/>
<path d="M281.25 19.25H270.75V29.75H281.25V19.25Z" fill="black"/>
<path d="M29.25 29.75H18.75V40.25H29.25V29.75Z" fill="black"/>
<path d="M92.25 29.75H81.75L81.75 40.25H92.25V29.75Z" fill="black"/>
<path d="M123.75 29.75H113.25V40.25H123.75V29.75Z" fill="black"/>
<path d="M165.75 29.75H155.25V40.25H165.75V29.75Z" fill="black"/>
<path d="M186.75 29.75H176.25L176.25 40.25H186.75V29.75Z" fill="black"/>
<path d="M218.25 29.75H207.75V40.25H218.25V29.75Z" fill="black"/>
<path d="M281.25 29.75H270.75V40.25H281.25V29.75Z" fill="black"/>
<path d="M29.25 40.25H18.75V50.75H29.25V40.25Z" fill="black"/>
<path d="M50.25 40.25H39.75V50.75H50.25V40.25Z" fill="black"/>
<path d="M60.75 40.25H50.25V50.75H60.75V40.25Z" fill="black"/>
<path d="M71.25 40.25H60.75V50.75H71.25V40.25Z" fill="black"/>
<path d="M92.25 40.25H81.75V50.75H92.25V40.25Z" fill="black"/>
<path d="M113.25 40.25H102.75V50.75H113.25V40.25Z" fill="black"/>
<path d="M134.25 40.25H123.75V50.75H134.25V40.25Z" fill="black"/>
<path d="M155.25 40.25H144.75V50.75H155.25V40.25Z" fill="black"/>
<path d="M197.25 40.25H186.75V50.75H197.25V40.25Z" fill="black"/>
<path d="M218.25 40.25H207.75V50.75H218.25V40.25Z" fill="black"/>
<path d="M239.25 40.25H228.75V50.75H239.25V40.25Z" fill="black"/>
<path d="M249.75 40.25H239.25V50.75H249.75V40.25Z" fill="black"/>
<path d="M260.25 40.25H249.75V50.75H260.25V40.25Z" fill="black"/>
<path d="M281.25 40.25H270.75V50.75H281.25V40.25Z" fill="black"/>
<path d="M29.25 50.75H18.75V61.25H29.25V50.75Z" fill="black"/>
<path d="M50.25 50.75H39.75V61.25H50.25V50.75Z" fill="black"/>
<path d="M60.75 50.75H50.25V61.25H60.75V50.75Z" fill="black"/>
<path d="M71.25 50.75H60.75V61.25H71.25V50.75Z" fill="black"/>
<path d="M92.25 50.75H81.75V61.25H92.25V50.75Z" fill="black"/>
<path d="M134.25 50.75H123.75V61.25H134.25V50.75Z" fill="black"/>
<path d="M144.75 50.75H134.25V61.25H144.75V50.75Z" fill="black"/>
<path d="M155.25 50.75H144.75V61.25H155.25V50.75Z" fill="black"/>
<path d="M218.25 50.75H207.75V61.25H218.25V50.75Z" fill="black"/>
<path d="M239.25 50.75H228.75V61.25H239.25V50.75Z" fill="black"/>
<path d="M249.75 50.75H239.25V61.25H249.75V50.75Z" fill="black"/>
<path d="M260.25 50.75H249.75V61.25H260.25V50.75Z" fill="black"/>
<path d="M281.25 50.75H270.75V61.25H281.25V50.75Z" fill="black"/>
<path d="M29.25 61.25H18.75V71.75H29.25V61.25Z" fill="black"/>
<path d="M50.25 61.25H39.75V71.75H50.25V61.25Z" fill="black"/>
<path d="M60.75 61.25H50.25V71.75H60.75V61.25Z" fill="black"/>
<path d="M71.25 61.25H60.75V71.75H71.25V61.25Z" fill="black"/>
<path d="M92.25 61.25H81.75V71.75H92.25V61.25Z" fill="black"/>
<path d="M113.25 61.25H102.75V71.75H113.25V61.25Z" fill="black"/>
<path d="M155.25 61.25H144.75V71.75H155.25V61.25Z" fill="black"/>
<path d="M165.75 61.25H155.25V71.75H165.75V61.25Z" fill="black"/>
<path d="M176.25 61.25H165.75V71.75H176.25V61.25Z" fill="black"/>
<path d="M186.75 61.25H176.25V71.75H186.75V61.25Z" fill="black"/>
<path d="M197.25 61.25H186.75V71.75H197.25V61.25Z" fill="black"/>
<path d="M218.25 61.25H207.75V71.75H218.25V61.25Z" fill="black"/>
<path d="M239.25 61.25H228.75V71.75H239.25V61.25Z" fill="black"/>
<path d="M249.75 61.25H239.25V71.75H249.75V61.25Z" fill="black"/>
<path d="M260.25 61.25H249.75V71.75H260.25V61.25Z" fill="black"/>
<path d="M281.25 61.25H270.75V71.75H281.25V61.25Z" fill="black"/>
<path d="M29.25 71.75H18.75V82.25H29.25V71.75Z" fill="black"/>
<path d="M92.25 71.75H81.75V82.25H92.25V71.75Z" fill="black"/>
<path d="M123.75 71.75H113.25V82.25H123.75V71.75Z" fill="black"/>
<path d="M134.25 71.75H123.75V82.25H134.25V71.75Z" fill="black"/>
<path d="M144.75 71.75H134.25V82.25H144.75V71.75Z" fill="black"/>
<path d="M155.25 71.75H144.75V82.25H155.25V71.75Z" fill="black"/>
<path d="M165.75 71.75H155.25V82.25H165.75V71.75Z" fill="black"/>
<path d="M218.25 71.75H207.75V82.25H218.25V71.75Z" fill="black"/>
<path d="M281.25 71.75H270.75V82.25H281.25V71.75Z" fill="black"/>
<path d="M29.25 82.25H18.75V92.75H29.25V82.25Z" fill="black"/>
<path d="M39.75 82.25L29.25 82.25V92.75H39.75V82.25Z" fill="black"/>
<path d="M50.25 82.25H39.75V92.75H50.25V82.25Z" fill="black"/>
<path d="M60.75 82.25H50.25V92.75H60.75V82.25Z" fill="black"/>
<path d="M71.25 82.25H60.75V92.75H71.25V82.25Z" fill="black"/>
<path d="M81.75 82.25L71.25 82.25V92.75H81.75L81.75 82.25Z" fill="black"/>
<path d="M92.25 82.25H81.75L81.75 92.75H92.25V82.25Z" fill="black"/>
<path d="M113.25 82.25L102.75 82.25V92.75H113.25V82.25Z" fill="black"/>
<path d="M134.25 82.25H123.75V92.75H134.25V82.25Z" fill="black"/>
<path d="M155.25 82.25H144.75V92.75H155.25V82.25Z" fill="black"/>
<path d="M176.25 82.25L165.75 82.25V92.75H176.25V82.25Z" fill="black"/>
<path d="M197.25 82.25H186.75V92.75H197.25V82.25Z" fill="black"/>
<path d="M218.25 82.25H207.75V92.75H218.25V82.25Z" fill="black"/>
<path d="M228.75 82.25L218.25 82.25V92.75H228.75V82.25Z" fill="black"/>
<path d="M239.25 82.25H228.75V92.75H239.25V82.25Z" fill="black"/>
<path d="M249.75 82.25H239.25V92.75H249.75V82.25Z" fill="black"/>
<path d="M260.25 82.25H249.75V92.75H260.25V82.25Z" fill="black"/>
<path d="M270.75 82.25L260.25 82.25V92.75H270.75V82.25Z" fill="black"/>
<path d="M281.25 82.25H270.75V92.75H281.25V82.25Z" fill="black"/>
<path d="M134.25 92.75H123.75V103.25H134.25V92.75Z" fill="black"/>
<path d="M155.25 92.75H144.75V103.25H155.25V92.75Z" fill="black"/>
<path d="M165.75 92.75H155.25V103.25H165.75V92.75Z" fill="black"/>
<path d="M39.75 103.25H29.25V113.75H39.75V103.25Z" fill="black"/>
<path d="M71.25 103.25H60.75V113.75H71.25V103.25Z" fill="black"/>
<path d="M92.25 103.25H81.75V113.75H92.25V103.25Z" fill="black"/>
<path d="M123.75 103.25H113.25V113.75H123.75V103.25Z" fill="black"/>
<path d="M144.75 103.25H134.25V113.75H144.75V103.25Z" fill="black"/>
<path d="M165.75 103.25H155.25V113.75H165.75V103.25Z" fill="black"/>
<path d="M197.25 103.25H186.75V113.75H197.25V103.25Z" fill="black"/>
<path d="M207.75 103.25H197.25V113.75H207.75V103.25Z" fill="black"/>
<path d="M239.25 103.25H228.75V113.75H239.25V103.25Z" fill="black"/>
<path d="M260.25 103.25H249.75V113.75H260.25V103.25Z" fill="black"/>
<path d="M281.25 103.25H270.75V113.75H281.25V103.25Z" fill="black"/>
<path d="M39.75 113.75H29.25V124.25H39.75V113.75Z" fill="black"/>
<path d="M50.25 113.75H39.75V124.25H50.25V113.75Z" fill="black"/>
<path d="M81.75 113.75H71.25V124.25H81.75L81.75 113.75Z" fill="black"/>
<path d="M102.75 113.75H92.25V124.25H102.75V113.75Z" fill="black"/>
<path d="M123.75 113.75H113.25V124.25H123.75V113.75Z" fill="black"/>
<path d="M134.25 113.75H123.75V124.25H134.25V113.75Z" fill="black"/>
<path d="M144.75 113.75H134.25V124.25H144.75V113.75Z" fill="black"/>
<path d="M155.25 113.75H144.75V124.25H155.25V113.75Z" fill="black"/>
<path d="M186.75 113.75H176.25V124.25H186.75V113.75Z" fill="black"/>
<path d="M207.75 113.75H197.25V124.25H207.75V113.75Z" fill="black"/>
<path d="M218.25 113.75H207.75V124.25H218.25V113.75Z" fill="black"/>
<path d="M228.75 113.75H218.25V124.25H228.75V113.75Z" fill="black"/>
<path d="M260.25 113.75H249.75V124.25H260.25V113.75Z" fill="black"/>
<path d="M71.25 124.25H60.75V134.75H71.25V124.25Z" fill="black"/>
<path d="M92.25 124.25H81.75L81.75 134.75H92.25V124.25Z" fill="black"/>
<path d="M102.75 124.25H92.25V134.75H102.75V124.25Z" fill="black"/>
<path d="M123.75 124.25H113.25V134.75H123.75V124.25Z" fill="black"/>
<path d="M165.75 124.25H155.25V134.75H165.75V124.25Z" fill="black"/>
<path d="M176.25 124.25H165.75V134.75H176.25L176.25 124.25Z" fill="black"/>
<path d="M186.75 124.25H176.25L176.25 134.75H186.75V124.25Z" fill="black"/>
<path d="M197.25 124.25H186.75V134.75H197.25V124.25Z" fill="black"/>
<path d="M239.25 124.25H228.75V134.75H239.25V124.25Z" fill="black"/>
<path d="M249.75 124.25H239.25V134.75H249.75V124.25Z" fill="black"/>
<path d="M270.75 124.25H260.25V134.75H270.75V124.25Z" fill="black"/>
<path d="M281.25 124.25H270.75V134.75H281.25V124.25Z" fill="black"/>
<path d="M50.25 134.75H39.75V145.25H50.25V134.75Z" fill="black"/>
<path d="M60.75 134.75H50.25V145.25H60.75V134.75Z" fill="black"/>
<path d="M71.25 134.75H60.75V145.25H71.25V134.75Z" fill="black"/>
<path d="M102.75 134.75H92.25V145.25H102.75V134.75Z" fill="black"/>
<path d="M144.75 134.75H134.25V145.25H144.75V134.75Z" fill="black"/>
<path d="M165.75 134.75H155.25V145.25H165.75V134.75Z" fill="black"/>
<path d="M186.75 134.75H176.25L176.25 145.25H186.75V134.75Z" fill="black"/>
<path d="M207.75 134.75H197.25V145.25H207.75V134.75Z" fill="black"/>
<path d="M218.25 134.75H207.75V145.25H218.25V134.75Z" fill="black"/>
<path d="M239.25 134.75H228.75V145.25H239.25V134.75Z" fill="black"/>
<path d="M249.75 134.75H239.25V145.25H249.75V134.75Z" fill="black"/>
<path d="M270.75 134.75H260.25V145.25H270.75V134.75Z" fill="black"/>
<path d="M29.25 145.25H18.75V155.75H29.25V145.25Z" fill="black"/>
<path d="M39.75 145.25H29.25V155.75H39.75V145.25Z" fill="black"/>
<path d="M50.25 145.25H39.75V155.75H50.25V145.25Z" fill="black"/>
<path d="M81.75 145.25H71.25V155.75H81.75V145.25Z" fill="black"/>
<path d="M92.25 145.25H81.75V155.75H92.25V145.25Z" fill="black"/>
<path d="M113.25 145.25H102.75V155.75H113.25V145.25Z" fill="black"/>
<path d="M123.75 145.25H113.25V155.75H123.75V145.25Z" fill="black"/>
<path d="M144.75 145.25H134.25V155.75H144.75V145.25Z" fill="black"/>
<path d="M197.25 145.25H186.75V155.75H197.25V145.25Z" fill="black"/>
<path d="M207.75 145.25H197.25V155.75H207.75V145.25Z" fill="black"/>
<path d="M218.25 145.25H207.75V155.75H218.25V145.25Z" fill="black"/>
<path d="M228.75 145.25H218.25V155.75H228.75V145.25Z" fill="black"/>
<path d="M281.25 145.25H270.75V155.75H281.25V145.25Z" fill="black"/>
<path d="M39.75 155.75H29.25V166.25H39.75V155.75Z" fill="black"/>
<path d="M60.75 155.75H50.25V166.25H60.75V155.75Z" fill="black"/>
<path d="M71.25 155.75H60.75V166.25H71.25V155.75Z" fill="black"/>
<path d="M123.75 155.75H113.25V166.25H123.75V155.75Z" fill="black"/>
<path d="M144.75 155.75H134.25V166.25H144.75V155.75Z" fill="black"/>
<path d="M176.25 155.75H165.75V166.25H176.25V155.75Z" fill="black"/>
<path d="M207.75 155.75H197.25V166.25H207.75V155.75Z" fill="black"/>
<path d="M228.75 155.75H218.25V166.25H228.75V155.75Z" fill="black"/>
<path d="M260.25 155.75H249.75V166.25H260.25V155.75Z" fill="black"/>
<path d="M29.25 166.25H18.75V176.75H29.25V166.25Z" fill="black"/>
<path d="M81.75 166.25H71.25V176.75H81.75V166.25Z" fill="black"/>
<path d="M92.25 166.25H81.75V176.75H92.25V166.25Z" fill="black"/>
<path d="M134.25 166.25H123.75V176.75H134.25V166.25Z" fill="black"/>
<path d="M144.75 166.25H134.25V176.75H144.75V166.25Z" fill="black"/>
<path d="M155.25 166.25H144.75V176.75H155.25V166.25Z" fill="black"/>
<path d="M165.75 166.25H155.25V176.75H165.75V166.25Z" fill="black"/>
<path d="M218.25 166.25H207.75V176.75H218.25V166.25Z" fill="black"/>
<path d="M228.75 166.25H218.25V176.75H228.75V166.25Z" fill="black"/>
<path d="M239.25 166.25H228.75V176.75H239.25V166.25Z" fill="black"/>
<path d="M249.75 166.25H239.25V176.75H249.75V166.25Z" fill="black"/>
<path d="M50.25 176.75H39.75V187.25H50.25V176.75Z" fill="black"/>
<path d="M81.75 176.75H71.25V187.25H81.75V176.75Z" fill="black"/>
<path d="M102.75 176.75L92.25 176.75V187.25H102.75V176.75Z" fill="black"/>
<path d="M123.75 176.75L113.25 176.75V187.25H123.75V176.75Z" fill="black"/>
<path d="M134.25 176.75H123.75V187.25H134.25V176.75Z" fill="black"/>
<path d="M155.25 176.75H144.75V187.25H155.25V176.75Z" fill="black"/>
<path d="M165.75 176.75H155.25V187.25H165.75V176.75Z" fill="black"/>
<path d="M186.75 176.75H176.25V187.25H186.75V176.75Z" fill="black"/>
<path d="M197.25 176.75H186.75V187.25H197.25V176.75Z" fill="black"/>
<path d="M218.25 176.75H207.75V187.25H218.25V176.75Z" fill="black"/>
<path d="M260.25 176.75L249.75 176.75V187.25H260.25V176.75Z" fill="black"/>
<path d="M270.75 176.75H260.25V187.25H270.75V176.75Z" fill="black"/>
<path d="M281.25 176.75H270.75V187.25H281.25V176.75Z" fill="black"/>
<path d="M60.75 187.25H50.25V197.75H60.75V187.25Z" fill="black"/>
<path d="M71.25 187.25H60.75V197.75H71.25V187.25Z" fill="black"/>
<path d="M81.75 187.25H71.25V197.75H81.75V187.25Z" fill="black"/>
<path d="M92.25 187.25H81.75V197.75H92.25V187.25Z" fill="black"/>
<path d="M113.25 187.25H102.75V197.75H113.25V187.25Z" fill="black"/>
<path d="M123.75 187.25H113.25V197.75H123.75V187.25Z" fill="black"/>
<path d="M134.25 187.25H123.75V197.75H134.25V187.25Z" fill="black"/>
<path d="M144.75 187.25H134.25V197.75H144.75V187.25Z" fill="black"/>
<path d="M155.25 187.25H144.75V197.75H155.25V187.25Z" fill="black"/>
<path d="M197.25 187.25H186.75V197.75H197.25V187.25Z" fill="black"/>
<path d="M207.75 187.25H197.25V197.75H207.75V187.25Z" fill="black"/>
<path d="M218.25 187.25H207.75V197.75H218.25V187.25Z" fill="black"/>
<path d="M228.75 187.25H218.25V197.75H228.75V187.25Z" fill="black"/>
<path d="M239.25 187.25H228.75V197.75H239.25V187.25Z" fill="black"/>
<path d="M260.25 187.25H249.75V197.75H260.25V187.25Z" fill="black"/>
<path d="M270.75 187.25H260.25V197.75H270.75V187.25Z" fill="black"/>
<path d="M281.25 187.25H270.75V197.75H281.25V187.25Z" fill="black"/>
<path d="M123.75 197.75H113.25V208.25H123.75V197.75Z" fill="black"/>
<path d="M134.25 197.75H123.75V208.25H134.25V197.75Z" fill="black"/>
<path d="M144.75 197.75H134.25V208.25H144.75V197.75Z" fill="black"/>
<path d="M155.25 197.75H144.75V208.25H155.25V197.75Z" fill="black"/>
<path d="M197.25 197.75H186.75V208.25H197.25V197.75Z" fill="black"/>
<path d="M239.25 197.75H228.75V208.25H239.25V197.75Z" fill="black"/>
<path d="M29.25 208.25H18.75V218.75H29.25V208.25Z" fill="black"/>
<path d="M39.75 208.25H29.25V218.75H39.75V208.25Z" fill="black"/>
<path d="M50.25 208.25H39.75V218.75H50.25V208.25Z" fill="black"/>
<path d="M60.75 208.25H50.25V218.75H60.75V208.25Z" fill="black"/>
<path d="M71.25 208.25H60.75V218.75H71.25V208.25Z" fill="black"/>
<path d="M81.75 208.25H71.25V218.75H81.75V208.25Z" fill="black"/>
<path d="M92.25 208.25H81.75V218.75H92.25V208.25Z" fill="black"/>
<path d="M123.75 208.25H113.25V218.75H123.75V208.25Z" fill="black"/>
<path d="M144.75 208.25H134.25V218.75H144.75V208.25Z" fill="black"/>
<path d="M155.25 208.25H144.75V218.75H155.25V208.25Z" fill="black"/>
<path d="M165.75 208.25H155.25V218.75H165.75V208.25Z" fill="black"/>
<path d="M176.25 208.25H165.75V218.75H176.25V208.25Z" fill="black"/>
<path d="M186.75 208.25H176.25V218.75H186.75V208.25Z" fill="black"/>
<path d="M197.25 208.25H186.75V218.75H197.25V208.25Z" fill="black"/>
<path d="M218.25 208.25H207.75V218.75H218.25V208.25Z" fill="black"/>
<path d="M239.25 208.25H228.75V218.75H239.25V208.25Z" fill="black"/>
<path d="M270.75 208.25H260.25V218.75H270.75V208.25Z" fill="black"/>
<path d="M281.25 208.25H270.75V218.75H281.25V208.25Z" fill="black"/>
<path d="M29.25 218.75H18.75V229.25H29.25V218.75Z" fill="black"/>
<path d="M92.25 218.75H81.75L81.75 229.25H92.25V218.75Z" fill="black"/>
<path d="M134.25 218.75H123.75V229.25H134.25V218.75Z" fill="black"/>
<path d="M144.75 218.75H134.25V229.25H144.75V218.75Z" fill="black"/>
<path d="M176.25 218.75H165.75V229.25H176.25V218.75Z" fill="black"/>
<path d="M186.75 218.75H176.25V229.25H186.75V218.75Z" fill="black"/>
<path d="M197.25 218.75H186.75V229.25H197.25V218.75Z" fill="black"/>
<path d="M239.25 218.75H228.75V229.25H239.25V218.75Z" fill="black"/>
<path d="M249.75 218.75H239.25V229.25H249.75V218.75Z" fill="black"/>
<path d="M260.25 218.75H249.75V229.25H260.25V218.75Z" fill="black"/>
<path d="M270.75 218.75H260.25V229.25H270.75V218.75Z" fill="black"/>
<path d="M29.25 229.25H18.75V239.75H29.25V229.25Z" fill="black"/>
<path d="M50.25 229.25H39.75V239.75H50.25V229.25Z" fill="black"/>
<path d="M60.75 229.25H50.25V239.75H60.75V229.25Z" fill="black"/>
<path d="M71.25 229.25H60.75V239.75H71.25V229.25Z" fill="black"/>
<path d="M92.25 229.25H81.75V239.75H92.25V229.25Z" fill="black"/>
<path d="M113.25 229.25H102.75V239.75H113.25V229.25Z" fill="black"/>
<path d="M134.25 229.25H123.75V239.75H134.25V229.25Z" fill="black"/>
<path d="M144.75 229.25H134.25V239.75H144.75V229.25Z" fill="black"/>
<path d="M176.25 229.25H165.75V239.75H176.25V229.25Z" fill="black"/>
<path d="M197.25 229.25H186.75V239.75H197.25V229.25Z" fill="black"/>
<path d="M207.75 229.25H197.25V239.75H207.75V229.25Z" fill="black"/>
<path d="M218.25 229.25H207.75V239.75H218.25V229.25Z" fill="black"/>
<path d="M228.75 229.25H218.25V239.75H228.75V229.25Z" fill="black"/>
<path d="M239.25 229.25H228.75V239.75H239.25V229.25Z" fill="black"/>
<path d="M260.25 229.25H249.75V239.75H260.25V229.25Z" fill="black"/>
<path d="M281.25 229.25H270.75V239.75H281.25V229.25Z" fill="black"/>
<path d="M29.25 239.75H18.75V250.25H29.25V239.75Z" fill="black"/>
<path d="M50.25 239.75H39.75V250.25H50.25V239.75Z" fill="black"/>
<path d="M60.75 239.75H50.25V250.25H60.75V239.75Z" fill="black"/>
<path d="M71.25 239.75H60.75V250.25H71.25V239.75Z" fill="black"/>
<path d="M92.25 239.75H81.75V250.25H92.25V239.75Z" fill="black"/>
<path d="M155.25 239.75H144.75V250.25H155.25V239.75Z" fill="black"/>
<path d="M165.75 239.75H155.25V250.25H165.75V239.75Z" fill="black"/>
<path d="M218.25 239.75H207.75V250.25H218.25V239.75Z" fill="black"/>
<path d="M239.25 239.75H228.75V250.25H239.25V239.75Z" fill="black"/>
<path d="M260.25 239.75H249.75V250.25H260.25V239.75Z" fill="black"/>
<path d="M270.75 239.75H260.25V250.25H270.75V239.75Z" fill="black"/>
<path d="M29.25 250.25H18.75V260.75H29.25V250.25Z" fill="black"/>
<path d="M50.25 250.25H39.75V260.75H50.25V250.25Z" fill="black"/>
<path d="M60.75 250.25H50.25V260.75H60.75V250.25Z" fill="black"/>
<path d="M71.25 250.25H60.75V260.75H71.25V250.25Z" fill="black"/>
<path d="M92.25 250.25H81.75V260.75H92.25V250.25Z" fill="black"/>
<path d="M134.25 250.25H123.75V260.75H134.25V250.25Z" fill="black"/>
<path d="M218.25 250.25H207.75V260.75H218.25V250.25Z" fill="black"/>
<path d="M29.25 260.75H18.75V271.25H29.25V260.75Z" fill="black"/>
<path d="M92.25 260.75H81.75V271.25H92.25V260.75Z" fill="black"/>
<path d="M113.25 260.75H102.75V271.25H113.25V260.75Z" fill="black"/>
<path d="M123.75 260.75H113.25V271.25H123.75V260.75Z" fill="black"/>
<path d="M134.25 260.75H123.75V271.25H134.25V260.75Z" fill="black"/>
<path d="M144.75 260.75H134.25V271.25H144.75V260.75Z" fill="black"/>
<path d="M155.25 260.75H144.75V271.25H155.25V260.75Z" fill="black"/>
<path d="M165.75 260.75H155.25V271.25H165.75V260.75Z" fill="black"/>
<path d="M176.25 260.75H165.75V271.25H176.25V260.75Z" fill="black"/>
<path d="M207.75 260.75H197.25V271.25H207.75V260.75Z" fill="black"/>
<path d="M218.25 260.75H207.75V271.25H218.25V260.75Z" fill="black"/>
<path d="M228.75 260.75H218.25V271.25H228.75V260.75Z" fill="black"/>
<path d="M239.25 260.75H228.75V271.25H239.25V260.75Z" fill="black"/>
<path d="M249.75 260.75H239.25V271.25H249.75V260.75Z" fill="black"/>
<path d="M270.75 260.75H260.25V271.25H270.75V260.75Z" fill="black"/>
<path d="M281.25 260.75H270.75V271.25H281.25V260.75Z" fill="black"/>
<path d="M29.25 271.25H18.75V281.75H29.25V271.25Z" fill="black"/>
<path d="M39.75 271.25H29.25V281.75H39.75V271.25Z" fill="black"/>
<path d="M50.25 271.25H39.75V281.75H50.25V271.25Z" fill="black"/>
<path d="M60.75 271.25H50.25V281.75H60.75V271.25Z" fill="black"/>
<path d="M71.25 271.25H60.75V281.75H71.25V271.25Z" fill="black"/>
<path d="M81.75 271.25H71.25V281.75H81.75L81.75 271.25Z" fill="black"/>
<path d="M92.25 271.25H81.75L81.75 281.75H92.25V271.25Z" fill="black"/>
<path d="M123.75 271.25H113.25V281.75H123.75V271.25Z" fill="black"/>
<path d="M134.25 271.25H123.75V281.75H134.25V271.25Z" fill="black"/>
<path d="M144.75 271.25H134.25V281.75H144.75V271.25Z" fill="black"/>
<path d="M165.75 271.25H155.25V281.75H165.75V271.25Z" fill="black"/>
<path d="M176.25 271.25H165.75V281.75H176.25V271.25Z" fill="black"/>
<path d="M197.25 271.25H186.75V281.75H197.25V271.25Z" fill="black"/>
<path d="M218.25 271.25H207.75V281.75H218.25V271.25Z" fill="black"/>
<path d="M228.75 271.25H218.25V281.75H228.75V271.25Z" fill="black"/>
<path d="M260.25 271.25H249.75V281.75H260.25V271.25Z" fill="black"/>
<path d="M281.25 271.25H270.75V281.75H281.25V271.25Z" fill="black"/>
</g>
<defs>
<clipPath id="clip0_1242_22461">
<rect y="0.5" width="300" height="300" rx="20" fill="white"/>
</clipPath>
</defs>
</svg>
