<svg width="80" height="81" viewBox="0 0 80 81" fill="none" xmlns="http://www.w3.org/2000/svg">
<rect y="0.666626" width="80" height="80" rx="40" fill="#101010" fill-opacity="0.08"/>
<path fill-rule="evenodd" clip-rule="evenodd" d="M26.667 40.6866C26.667 33.6627 32.2803 27.3333 40.027 27.3333C47.6003 27.3333 53.3337 33.5426 53.3337 40.6466C53.3337 48.8856 46.6137 53.9999 40.0003 53.9999C37.8137 53.9999 35.387 53.4124 33.4403 52.264C32.7603 51.85 32.187 51.5429 31.4537 51.7833L28.7603 52.5845C28.0803 52.7981 27.467 52.264 27.667 51.5429L28.5603 48.5517C28.707 48.1378 28.6803 47.6971 28.467 47.3499C27.3203 45.2401 26.667 42.93 26.667 40.6866ZM38.267 40.6866C38.267 41.6347 39.027 42.3958 39.9737 42.4092C40.9203 42.4092 41.6803 41.6347 41.6803 40.7C41.6803 39.7519 40.9203 38.9907 39.9737 38.9907C39.0403 38.9774 38.267 39.7519 38.267 40.6866ZM44.4137 40.7C44.4137 41.6347 45.1737 42.4092 46.1203 42.4092C47.067 42.4092 47.827 41.6347 47.827 40.7C47.827 39.7519 47.067 38.9907 46.1203 38.9907C45.1737 38.9907 44.4137 39.7519 44.4137 40.7ZM33.827 42.4092C32.8937 42.4092 32.1203 41.6347 32.1203 40.7C32.1203 39.7519 32.8803 38.9907 33.827 38.9907C34.7737 38.9907 35.5337 39.7519 35.5337 40.7C35.5337 41.6347 34.7737 42.3958 33.827 42.4092Z" fill="url(#paint0_linear_827_17319)"/>
<defs>
<linearGradient id="paint0_linear_827_17319" x1="53.3337" y1="53.9999" x2="21.6027" y2="44.7998" gradientUnits="userSpaceOnUse">
<stop stop-color="#101010"/>
<stop offset="1" stop-color="#313130"/>
</linearGradient>
</defs>
</svg>
