<svg width="14" height="14" viewBox="0 0 14 14" fill="none" xmlns="http://www.w3.org/2000/svg">
<path fill-rule="evenodd" clip-rule="evenodd" d="M0.333984 9.71967V4.27301C0.333984 1.91967 1.84798 0.333008 4.10732 0.333008H9.88732C12.1473 0.333008 13.6673 1.91967 13.6673 4.27301V9.71967C13.6673 12.0797 12.1473 13.6663 9.88732 13.6663H4.10732C1.84798 13.6663 0.333984 12.0797 0.333984 9.71967ZM7.50065 8.51301V4.27967C7.50065 3.99967 7.27398 3.77967 7.00065 3.77967C6.72065 3.77967 6.50065 3.99967 6.50065 4.27967V8.51301L4.85398 6.85967C4.76065 6.76634 4.62732 6.71301 4.50065 6.71301C4.37465 6.71301 4.24732 6.76634 4.14732 6.85967C3.95398 7.05301 3.95398 7.37301 4.14732 7.56634L6.64732 10.0797C6.83398 10.2663 7.16732 10.2663 7.35398 10.0797L9.85398 7.56634C10.0473 7.37301 10.0473 7.05301 9.85398 6.85967C9.65398 6.66634 9.34065 6.66634 9.14065 6.85967L7.50065 8.51301Z" fill="#246BFD"/>
</svg>