<svg width="150" height="150" viewBox="0 0 186 180" fill="none" xmlns="http://www.w3.org/2000/svg">
<circle cx="95.5" cy="90.5" r="70.5" fill="white"/>
<circle cx="178.467" cy="27.5" r="7.5" fill="white"/>
<circle cx="20.0332" cy="10" r="10" fill="white"/>
<circle cx="10.0332" cy="133" r="5" fill="white"/>
<circle cx="165.533" cy="160.5" r="2.5" fill="white"/>
<path fill-rule="evenodd" clip-rule="evenodd" d="M109.681 81.6053H120.083C120.083 73.2538 115.079 68.375 106.6 68.375H84.3986C75.9201 68.375 70.916 73.2538 70.916 81.4987V99.5013C70.916 107.746 75.9201 112.625 84.3986 112.625H106.6C115.079 112.625 120.083 107.746 120.083 99.5013V98.7343H109.681C104.854 98.7343 100.94 94.9189 100.94 90.2124C100.94 85.5059 104.854 81.6905 109.681 81.6905V81.6053ZM109.681 85.2697H118.247C119.261 85.2697 120.083 86.0709 120.083 87.0593V93.2803C120.071 94.2638 119.256 95.0584 118.247 95.0699H109.878C107.434 95.1019 105.297 93.4706 104.743 91.1498C104.465 89.7091 104.855 88.2225 105.807 87.0884C106.76 85.9542 108.178 85.2885 109.681 85.2697ZM110.053 91.8102H110.861C111.899 91.8102 112.74 90.9899 112.74 89.978C112.74 88.9661 111.899 88.1458 110.861 88.1458H110.053C109.556 88.1401 109.078 88.3284 108.725 88.6686C108.372 89.0089 108.173 89.4727 108.173 89.9567C108.173 90.9721 109.011 91.7986 110.053 91.8102ZM82.5631 81.6053H96.439C97.4769 81.6053 98.3182 80.785 98.3182 79.773C98.3182 78.7611 97.4769 77.9408 96.439 77.9408H82.5631C81.5336 77.9408 80.6958 78.7482 80.6838 79.7517C80.6837 80.7671 81.5216 81.5936 82.5631 81.6053Z" fill="#35383F"/>
<circle cx="106.533" cy="4.5" r="2.5" fill="white"/>
<circle cx="62.5332" cy="176.5" r="3.5" fill="white"/>
<circle cx="122.033" cy="171" r="1" fill="white"/>
<circle cx="170.533" cy="110.5" r="2.5" fill="white"/>
<circle cx="1.0332" cy="75" r="1" fill="white"/>
</svg>